G04*
G04 #@! TF.GenerationSoftware,Altium Limited,Altium Designer,21.3.2 (30)*
G04*
G04 Layer_Physical_Order=1*
G04 Layer_Color=255*
%FSLAX25Y25*%
%MOIN*%
G70*
G04*
G04 #@! TF.SameCoordinates,58D38C34-9AFC-4311-94A1-E66397908E57*
G04*
G04*
G04 #@! TF.FilePolarity,Positive*
G04*
G01*
G75*
%ADD10C,0.01000*%
%ADD20R,0.06496X0.13189*%
%ADD21R,0.25000X0.20787*%
%ADD22R,0.07284X0.13386*%
%ADD23R,0.04331X0.03937*%
%ADD24R,0.03937X0.04331*%
%ADD25R,0.04331X0.04331*%
%ADD26R,0.04134X0.05906*%
%ADD27R,0.09449X0.05906*%
%ADD28R,0.10433X0.06496*%
%ADD29R,0.02756X0.00984*%
%ADD30R,0.00984X0.02756*%
%ADD31R,0.20984X0.23228*%
%ADD32R,0.20984X0.22008*%
%ADD33R,0.07874X0.07874*%
%ADD34R,0.05118X0.07874*%
%ADD35R,0.10236X0.07874*%
G04:AMPARAMS|DCode=58|XSize=11.85mil|YSize=13.82mil|CornerRadius=1.78mil|HoleSize=0mil|Usage=FLASHONLY|Rotation=90.000|XOffset=0mil|YOffset=0mil|HoleType=Round|Shape=RoundedRectangle|*
%AMROUNDEDRECTD58*
21,1,0.01185,0.01026,0,0,90.0*
21,1,0.00830,0.01382,0,0,90.0*
1,1,0.00356,0.00513,0.00415*
1,1,0.00356,0.00513,-0.00415*
1,1,0.00356,-0.00513,-0.00415*
1,1,0.00356,-0.00513,0.00415*
%
%ADD58ROUNDEDRECTD58*%
G04:AMPARAMS|DCode=59|XSize=11.85mil|YSize=34.49mil|CornerRadius=1.78mil|HoleSize=0mil|Usage=FLASHONLY|Rotation=90.000|XOffset=0mil|YOffset=0mil|HoleType=Round|Shape=RoundedRectangle|*
%AMROUNDEDRECTD59*
21,1,0.01185,0.03093,0,0,90.0*
21,1,0.00830,0.03449,0,0,90.0*
1,1,0.00356,0.01547,0.00415*
1,1,0.00356,0.01547,-0.00415*
1,1,0.00356,-0.01547,-0.00415*
1,1,0.00356,-0.01547,0.00415*
%
%ADD59ROUNDEDRECTD59*%
G04:AMPARAMS|DCode=60|XSize=11.85mil|YSize=48.27mil|CornerRadius=1.78mil|HoleSize=0mil|Usage=FLASHONLY|Rotation=90.000|XOffset=0mil|YOffset=0mil|HoleType=Round|Shape=RoundedRectangle|*
%AMROUNDEDRECTD60*
21,1,0.01185,0.04471,0,0,90.0*
21,1,0.00830,0.04827,0,0,90.0*
1,1,0.00356,0.02236,0.00415*
1,1,0.00356,0.02236,-0.00415*
1,1,0.00356,-0.02236,-0.00415*
1,1,0.00356,-0.02236,0.00415*
%
%ADD60ROUNDEDRECTD60*%
G04:AMPARAMS|DCode=61|XSize=11.85mil|YSize=55.16mil|CornerRadius=1.78mil|HoleSize=0mil|Usage=FLASHONLY|Rotation=90.000|XOffset=0mil|YOffset=0mil|HoleType=Round|Shape=RoundedRectangle|*
%AMROUNDEDRECTD61*
21,1,0.01185,0.05160,0,0,90.0*
21,1,0.00830,0.05516,0,0,90.0*
1,1,0.00356,0.02580,0.00415*
1,1,0.00356,0.02580,-0.00415*
1,1,0.00356,-0.02580,-0.00415*
1,1,0.00356,-0.02580,0.00415*
%
%ADD61ROUNDEDRECTD61*%
%ADD62C,0.04000*%
%ADD63C,0.01500*%
%ADD64C,0.05906*%
%ADD65R,0.08268X0.08268*%
%ADD66C,0.08268*%
%ADD67C,0.39370*%
%ADD68C,0.02756*%
G36*
X393158Y117322D02*
Y10000D01*
X393189Y9924D01*
X393014Y8147D01*
X392474Y6366D01*
X391596Y4724D01*
X390415Y3285D01*
X388976Y2104D01*
X387335Y1227D01*
X385553Y687D01*
X383777Y512D01*
X383701Y543D01*
X10000D01*
X9924Y512D01*
X8147Y687D01*
X6366Y1227D01*
X4724Y2104D01*
X3285Y3285D01*
X2104Y4724D01*
X1227Y6366D01*
X687Y8147D01*
X512Y9924D01*
X543Y10000D01*
Y117330D01*
X1043Y117626D01*
X1181Y117569D01*
X1181Y117569D01*
X104106D01*
X132097Y89579D01*
Y66710D01*
X131597Y66610D01*
X131513Y66812D01*
X130985Y67340D01*
X130295Y67626D01*
X129548D01*
X128858Y67340D01*
X128329Y66812D01*
X128043Y66122D01*
Y65374D01*
X128062Y65330D01*
X121428Y58697D01*
X96957D01*
Y60343D01*
X92020D01*
Y58697D01*
X83177D01*
Y60343D01*
X78240D01*
Y55012D01*
X83177D01*
Y56658D01*
X92020D01*
Y55012D01*
X96367D01*
X96574Y54512D01*
X95712Y53650D01*
X91823D01*
Y48319D01*
X97154D01*
Y52208D01*
X98016Y53070D01*
X98516Y52863D01*
Y48516D01*
X103847D01*
Y49965D01*
X105360D01*
X105444Y49652D01*
X105898Y48864D01*
X106541Y48221D01*
X107329Y47767D01*
X108207Y47532D01*
X109116D01*
X109994Y47767D01*
X110782Y48221D01*
X111424Y48864D01*
X111879Y49652D01*
X112114Y50530D01*
Y51439D01*
X111879Y52317D01*
X111424Y53104D01*
X110782Y53747D01*
X110357Y53992D01*
X110491Y54492D01*
X127256D01*
Y54351D01*
X127542Y53661D01*
X128070Y53132D01*
X128760Y52846D01*
X129507D01*
X130198Y53132D01*
X130726Y53661D01*
X131012Y54351D01*
Y55098D01*
X130726Y55788D01*
X130198Y56317D01*
X129507Y56602D01*
X128760D01*
X128315Y56418D01*
X128261Y56454D01*
X127871Y56531D01*
X122836D01*
X122710Y56733D01*
X122647Y57031D01*
X129504Y63888D01*
X129548Y63870D01*
X130295D01*
X130985Y64156D01*
X131513Y64684D01*
X131597Y64886D01*
X132097Y64786D01*
Y61811D01*
Y57677D01*
X132177Y57273D01*
Y55012D01*
X137114D01*
Y57273D01*
X137195Y57677D01*
Y61811D01*
Y87057D01*
X151575D01*
X151575Y87057D01*
X151575Y87057D01*
X166440D01*
X166774Y86557D01*
X166626Y86200D01*
Y85453D01*
X166448Y85187D01*
X149606D01*
X149336Y85075D01*
X149065Y85187D01*
X141732D01*
X141350Y85028D01*
X141191Y84646D01*
Y77165D01*
X141350Y76783D01*
X141350Y76783D01*
X143318Y74814D01*
X143701Y74656D01*
X143701Y74656D01*
X152925D01*
X154577Y73004D01*
X154577Y70473D01*
X154577Y70472D01*
X154583Y70458D01*
X154583Y70452D01*
X154618Y69972D01*
X154618D01*
D01*
D01*
X154710Y69785D01*
X154735Y69280D01*
X154621Y69004D01*
X154618D01*
Y68997D01*
X154577Y68898D01*
Y64173D01*
X154618Y64074D01*
Y64067D01*
X154621D01*
X154735Y63791D01*
X155118Y63632D01*
X162374D01*
X164026Y61981D01*
Y56693D01*
X164184Y56310D01*
X164362Y56236D01*
Y55996D01*
X169886D01*
X169919Y55917D01*
X170302Y55758D01*
X172047D01*
X172318Y55870D01*
X172588Y55758D01*
X173909D01*
Y52354D01*
Y48728D01*
X168299D01*
Y46988D01*
X168272Y46850D01*
Y42681D01*
X167626Y42035D01*
X166949D01*
X166259Y41750D01*
X165731Y41221D01*
X165445Y40531D01*
Y39784D01*
X165731Y39094D01*
X166259Y38565D01*
X166949Y38280D01*
X167696D01*
X168387Y38565D01*
X168915Y39094D01*
X169201Y39784D01*
Y40531D01*
X169143Y40669D01*
X169740Y41266D01*
X170240Y41059D01*
Y35933D01*
X165642D01*
Y27059D01*
X171760D01*
Y34491D01*
X171981Y34712D01*
X172202Y35043D01*
X172279Y35433D01*
Y38819D01*
X177159D01*
X179545Y36433D01*
X179487Y36148D01*
X179358Y35933D01*
X174697D01*
Y27059D01*
X180815D01*
Y35563D01*
X180815Y35933D01*
X181261Y36063D01*
X181393D01*
X184146Y33310D01*
Y29815D01*
X185521D01*
X185570Y29315D01*
X185437Y29288D01*
X185106Y29067D01*
X181956Y25918D01*
X181956Y25918D01*
X176224Y20185D01*
X168791D01*
Y11311D01*
X177665D01*
Y18743D01*
X183398Y24476D01*
X183398Y24476D01*
X186249Y27327D01*
X189567D01*
X189957Y27404D01*
X190288Y27626D01*
X192477Y29815D01*
X196169D01*
Y30266D01*
X196378Y30406D01*
X197125D01*
X197531Y30134D01*
Y29815D01*
X202862D01*
Y34752D01*
X197531D01*
Y34433D01*
X197125Y34161D01*
X196378D01*
X196169Y34301D01*
Y34752D01*
X191572D01*
X191380Y35214D01*
X192280Y36114D01*
X196169D01*
Y37563D01*
X197208D01*
X197227Y37519D01*
X197755Y36991D01*
X198445Y36705D01*
X199193D01*
X199883Y36991D01*
X200411Y37519D01*
X200697Y38209D01*
Y38956D01*
X200678Y39000D01*
X205540Y43862D01*
X210917D01*
Y42413D01*
X216248D01*
Y47350D01*
X210917D01*
Y45902D01*
X205118D01*
X204728Y45824D01*
X204397Y45603D01*
X199237Y40442D01*
X199193Y40461D01*
X198445D01*
X197755Y40175D01*
X197227Y39646D01*
X197208Y39602D01*
X196169D01*
Y41051D01*
X190839D01*
Y37556D01*
X189938Y36656D01*
X189476Y36847D01*
Y41051D01*
X187831D01*
Y42413D01*
X189476D01*
Y47350D01*
X184146D01*
Y42413D01*
X185791D01*
Y41051D01*
X184146D01*
Y39602D01*
X182961D01*
X182862Y40102D01*
X182954Y40140D01*
X183482Y40668D01*
X183768Y41359D01*
Y42106D01*
X183482Y42796D01*
X182954Y43324D01*
X182909Y43343D01*
Y46850D01*
X182832Y47241D01*
X182611Y47571D01*
X180324Y49858D01*
X180531Y50358D01*
X184087D01*
Y48933D01*
X189417D01*
Y53870D01*
X187831D01*
Y55012D01*
X189476D01*
Y59949D01*
X184146D01*
Y55012D01*
X185791D01*
Y53870D01*
X184087D01*
Y52398D01*
X179350D01*
X179143Y52898D01*
X180248Y54003D01*
X180470Y54334D01*
X180547Y54724D01*
Y61782D01*
X181131Y62366D01*
X184146D01*
Y60917D01*
X189476D01*
Y65854D01*
X187634D01*
Y68746D01*
X187947Y68830D01*
X188734Y69284D01*
X189377Y69927D01*
X189832Y70714D01*
X190067Y71593D01*
Y72502D01*
X189832Y73380D01*
X189377Y74167D01*
X188734Y74810D01*
X187947Y75265D01*
X187069Y75500D01*
X186160D01*
X185282Y75265D01*
X184494Y74810D01*
X183851Y74167D01*
X183397Y73380D01*
X183161Y72502D01*
Y71593D01*
X183397Y70714D01*
X183851Y69927D01*
X184494Y69284D01*
X185282Y68830D01*
X185595Y68746D01*
Y65854D01*
X184146D01*
Y64405D01*
X180709D01*
X180318Y64328D01*
X179988Y64107D01*
X178807Y62926D01*
X178586Y62595D01*
X178508Y62205D01*
Y55147D01*
X178165Y54804D01*
X177665Y55011D01*
Y56307D01*
X176807D01*
Y75310D01*
X177442Y75573D01*
X177970Y76102D01*
X178256Y76792D01*
Y77539D01*
X177970Y78229D01*
X177442Y78757D01*
X176751Y79043D01*
X176004D01*
X175314Y78757D01*
X175254Y78697D01*
X174754Y78904D01*
Y83437D01*
X178785Y87469D01*
X179247Y87277D01*
Y86234D01*
X178723Y85709D01*
X178437Y85019D01*
Y84272D01*
X178723Y83582D01*
X179251Y83054D01*
X179941Y82768D01*
X180689D01*
X181379Y83054D01*
X181907Y83582D01*
X182193Y84272D01*
Y85019D01*
X181907Y85709D01*
X181379Y86238D01*
X181287Y86276D01*
Y87597D01*
Y88170D01*
D01*
X181370Y88296D01*
X181423Y88560D01*
Y89386D01*
X181453Y89411D01*
X181502Y89415D01*
X181690Y89513D01*
X181826Y89540D01*
X184866D01*
X185035Y89609D01*
X185209Y89662D01*
X185383Y89805D01*
X185396Y89830D01*
X185422Y89841D01*
X185492Y90009D01*
X185502Y90028D01*
X185578Y90170D01*
X185570Y90197D01*
X185581Y90223D01*
Y91664D01*
X185570Y91690D01*
X185578Y91717D01*
X185492Y91878D01*
X185422Y92047D01*
X185396Y92057D01*
X185383Y92082D01*
X185209Y92225D01*
X185035Y92278D01*
X184866Y92348D01*
X179759D01*
X179652Y92369D01*
X179607Y92399D01*
X179577Y92444D01*
X179556Y92551D01*
Y93274D01*
X179577Y93380D01*
X179607Y93425D01*
X179652Y93455D01*
X179759Y93477D01*
X184866D01*
X185035Y93547D01*
X185209Y93599D01*
X185383Y93742D01*
X185396Y93767D01*
X185422Y93778D01*
X185492Y93946D01*
D01*
X185578Y94107D01*
X185570Y94134D01*
X185581Y94160D01*
Y95601D01*
X185570Y95627D01*
X185578Y95654D01*
X185492Y95815D01*
D01*
X185422Y95984D01*
X185396Y95994D01*
X185383Y96019D01*
X185209Y96162D01*
X185035Y96215D01*
X184866Y96285D01*
X179759D01*
X179652Y96306D01*
X179607Y96336D01*
X179577Y96381D01*
D01*
X179556Y96488D01*
D01*
Y97211D01*
X179577Y97317D01*
X179607Y97362D01*
X179652Y97392D01*
X179759Y97414D01*
X184866D01*
X185035Y97484D01*
X185209Y97537D01*
X185383Y97679D01*
X185396Y97704D01*
X185422Y97715D01*
X185492Y97883D01*
D01*
X185578Y98044D01*
X185570Y98071D01*
X185581Y98097D01*
Y102138D01*
X187920Y104478D01*
X188354Y104638D01*
X188800Y104507D01*
X188976Y104331D01*
X204577Y104331D01*
X204735Y103948D01*
X205118Y103789D01*
X254689D01*
X255018Y103289D01*
X255018Y103289D01*
X254856Y103128D01*
Y101748D01*
X255956Y100647D01*
X257512D01*
X258612Y101748D01*
Y102899D01*
X258450Y103289D01*
X258779Y103789D01*
X259449D01*
X259645Y103871D01*
X259962Y103924D01*
X260247Y103870D01*
X260251Y103867D01*
X260474Y103574D01*
X260454Y103305D01*
X260285Y102899D01*
Y101748D01*
X261386Y100647D01*
X262941D01*
X264041Y101748D01*
Y103128D01*
X263880Y103289D01*
X264209Y103789D01*
X276772Y103789D01*
X276772Y103789D01*
X277154Y103948D01*
X277154Y103948D01*
X290775Y117569D01*
X392126D01*
X392126Y117569D01*
X392509Y117727D01*
X392685Y117734D01*
X393158Y117322D01*
D02*
G37*
G36*
X259449Y104331D02*
X257480D01*
Y108661D01*
X254331Y111811D01*
X250787D01*
Y110236D01*
X253543D01*
X255906Y107874D01*
Y104331D01*
X205118D01*
Y149606D01*
X259449D01*
Y104331D01*
D02*
G37*
G36*
X385553Y235534D02*
X387335Y234994D01*
X388976Y234116D01*
X390415Y232935D01*
X391596Y231496D01*
X392474Y229854D01*
X393014Y228073D01*
X393189Y226296D01*
X393158Y226220D01*
Y119142D01*
X392126Y118110D01*
X290551D01*
X276772Y104331D01*
X262992Y104331D01*
Y107874D01*
X265354Y110236D01*
X268110D01*
Y111811D01*
X264567D01*
X261417Y108661D01*
Y104331D01*
X260490D01*
X259990Y104831D01*
Y149606D01*
X259842Y149962D01*
Y235677D01*
X383701D01*
X383777Y235709D01*
X385553Y235534D01*
D02*
G37*
G36*
X188976Y106299D02*
X185039Y102362D01*
Y98097D01*
X184866Y97955D01*
X179706D01*
X179441Y97902D01*
X179217Y97752D01*
X179067Y97528D01*
X179015Y97264D01*
Y96434D01*
X179067Y96170D01*
X179217Y95946D01*
X179441Y95796D01*
X179706Y95743D01*
X184866D01*
X185039Y95601D01*
Y94160D01*
X184866Y94018D01*
X179706D01*
X179441Y93965D01*
X179217Y93815D01*
X179067Y93591D01*
X179015Y93327D01*
Y92497D01*
X179067Y92233D01*
X179217Y92009D01*
X179441Y91859D01*
X179706Y91806D01*
X184866D01*
X185039Y91664D01*
Y90223D01*
X184866Y90081D01*
X181772D01*
X181508Y90028D01*
X181252Y89895D01*
X180996Y90028D01*
X180732Y90081D01*
X179706D01*
X179441Y90028D01*
X179217Y89878D01*
X179067Y89654D01*
X179015Y89390D01*
Y88560D01*
X179031Y88480D01*
X174213Y83661D01*
Y77756D01*
Y56307D01*
X173909D01*
Y56299D01*
X172588D01*
Y75984D01*
X172430Y76367D01*
X172430Y76367D01*
X170174Y78623D01*
X169885Y78743D01*
X169765Y79032D01*
X169765Y79032D01*
X169615Y79182D01*
Y82895D01*
X169615Y82895D01*
X169456Y83278D01*
X169166Y83568D01*
X169231Y84095D01*
X169568Y84235D01*
X170096Y84763D01*
X170382Y85453D01*
Y86200D01*
X170272Y86467D01*
X170308Y86503D01*
X170529Y86834D01*
X170606Y87224D01*
Y88099D01*
X170738Y88297D01*
X170791Y88562D01*
Y89387D01*
X170821Y89412D01*
X170870Y89416D01*
X171057Y89514D01*
X171194Y89541D01*
X174234D01*
X174256Y89550D01*
X174278Y89543D01*
X174444Y89628D01*
X174616Y89700D01*
X174625Y89721D01*
X174646Y89732D01*
X175014Y90166D01*
X175071Y90344D01*
X175143Y90516D01*
Y91374D01*
X175071Y91546D01*
X175014Y91724D01*
X174646Y92158D01*
X174625Y92168D01*
X174616Y92190D01*
X174444Y92262D01*
X174278Y92347D01*
X174256Y92340D01*
X174234Y92349D01*
X169127D01*
X169073Y92359D01*
Y93467D01*
X169127Y93478D01*
X174234D01*
X174256Y93487D01*
X174278Y93480D01*
X174444Y93565D01*
X174616Y93637D01*
X174625Y93658D01*
X174646Y93669D01*
X175014Y94103D01*
X175071Y94281D01*
X175143Y94453D01*
Y95311D01*
X175071Y95483D01*
X175014Y95661D01*
X174646Y96095D01*
X174625Y96105D01*
X174616Y96127D01*
X174444Y96199D01*
X174278Y96284D01*
X174256Y96277D01*
X174234Y96286D01*
X169127D01*
X169073Y96296D01*
Y97428D01*
X169175Y97496D01*
X169336Y97582D01*
X169344Y97609D01*
X169368Y97624D01*
X169403Y97804D01*
X169456Y97978D01*
X169407Y98478D01*
X169321Y98639D01*
X169251Y98808D01*
X169225Y98819D01*
X169212Y98843D01*
X169073Y98886D01*
Y102580D01*
X165354Y106299D01*
X165354Y133858D01*
X188976D01*
Y106299D01*
D02*
G37*
G36*
X10000Y235677D02*
X163088D01*
Y98425D01*
X168868D01*
X168918Y97925D01*
X168809Y97904D01*
X168585Y97754D01*
X168435Y97530D01*
X168382Y97265D01*
Y96436D01*
X168435Y96171D01*
X168585Y95947D01*
X168809Y95797D01*
X169073Y95745D01*
X174234D01*
X174601Y95311D01*
Y94453D01*
X174234Y94019D01*
X169073D01*
X168809Y93967D01*
X168585Y93817D01*
X168435Y93593D01*
X168382Y93328D01*
Y92499D01*
X168435Y92234D01*
X168585Y92010D01*
X168809Y91860D01*
X169073Y91808D01*
X174234D01*
X174601Y91374D01*
Y90516D01*
X174234Y90082D01*
X171140D01*
X170876Y90030D01*
X170620Y89896D01*
X170364Y90030D01*
X170100Y90082D01*
X169073D01*
X168809Y90030D01*
X168585Y89880D01*
X168435Y89656D01*
X168382Y89391D01*
Y88562D01*
X168435Y88297D01*
X168497Y88205D01*
X168326Y87705D01*
X168130D01*
X167874Y87598D01*
X134843D01*
X104331Y118110D01*
X1181D01*
X543Y118748D01*
Y226220D01*
X512Y226296D01*
X687Y228073D01*
X1227Y229854D01*
X2104Y231496D01*
X3285Y232935D01*
X4724Y234116D01*
X6366Y234994D01*
X8147Y235534D01*
X9924Y235709D01*
X10000Y235677D01*
D02*
G37*
G36*
X149065Y78740D02*
X149065Y78740D01*
X149224Y78357D01*
X149224Y78357D01*
X149606Y77975D01*
Y77756D01*
X150591Y76772D01*
X150825D01*
X151181Y76624D01*
X151181Y76624D01*
X161959D01*
X165817Y72766D01*
X165826Y72744D01*
X166354Y72216D01*
X166376Y72206D01*
X168139Y70443D01*
Y56693D01*
X166535D01*
Y67716D01*
X164960Y69291D01*
X156299Y69291D01*
X155118Y70472D01*
X155118Y73228D01*
X153150Y75197D01*
X143701D01*
X141732Y77165D01*
Y84646D01*
X149065D01*
Y78740D01*
D02*
G37*
G36*
X156299Y68750D02*
X156299Y68750D01*
X164736Y68750D01*
X165994Y67492D01*
Y56693D01*
X164567D01*
Y62205D01*
X162598Y64173D01*
X155118D01*
Y68898D01*
X155943D01*
X156299Y68750D01*
D02*
G37*
G36*
X167440Y84235D02*
X167941Y84027D01*
X169073Y82895D01*
Y78958D01*
X169382Y78650D01*
Y78240D01*
X169791D01*
X172047Y75984D01*
Y56299D01*
X170302D01*
Y57829D01*
X170311Y57874D01*
Y71611D01*
X170302Y71656D01*
Y73792D01*
X166929Y77165D01*
X151181D01*
X149606Y78740D01*
Y84646D01*
X167029D01*
X167440Y84235D01*
D02*
G37*
%LPC*%
G36*
X198799Y68413D02*
X198052D01*
X197361Y68128D01*
X196833Y67599D01*
X196547Y66909D01*
Y66162D01*
X196833Y65472D01*
X197361Y64943D01*
X197394Y64930D01*
X197501Y64390D01*
X197175Y64012D01*
X196169D01*
Y65854D01*
X190839D01*
Y60917D01*
X196169D01*
Y61972D01*
X197208D01*
X197227Y61928D01*
X197755Y61400D01*
X198445Y61114D01*
X199193D01*
X199883Y61400D01*
X200411Y61928D01*
X200697Y62619D01*
Y63366D01*
X200411Y64056D01*
X199883Y64584D01*
X199850Y64598D01*
X199743Y65137D01*
X200069Y65516D01*
X212176D01*
X219453Y58239D01*
Y53870D01*
X217610D01*
Y48933D01*
X219453D01*
Y47350D01*
X217610D01*
Y42413D01*
X222941D01*
Y47350D01*
X221492D01*
Y48933D01*
X222941D01*
Y53870D01*
X221492D01*
Y58661D01*
X221414Y59052D01*
X221193Y59382D01*
X213319Y67256D01*
X212989Y67477D01*
X212598Y67555D01*
X200036D01*
X200017Y67599D01*
X199489Y68128D01*
X198799Y68413D01*
D02*
G37*
G36*
X155618Y60736D02*
X150287D01*
Y55799D01*
X155618D01*
Y57387D01*
X158461D01*
X158779Y57069D01*
X159469Y56783D01*
X159412Y56307D01*
X158949D01*
Y54366D01*
X155618D01*
Y54831D01*
X150331D01*
X150305Y54895D01*
X149776Y55423D01*
X149086Y55709D01*
X148339D01*
X147649Y55423D01*
X147121Y54895D01*
X147094Y54831D01*
X143595D01*
Y49894D01*
X148925D01*
Y51953D01*
X149086D01*
X149776Y52239D01*
X149826Y52288D01*
X150287Y52096D01*
Y49894D01*
X151933D01*
Y48925D01*
X150287D01*
Y43988D01*
X154491D01*
X154683Y43526D01*
X154176Y43020D01*
X150287D01*
Y38083D01*
X155618D01*
Y41578D01*
X157808Y43767D01*
X158029Y44098D01*
X158106Y44488D01*
Y49971D01*
X158449Y50314D01*
X158949Y50251D01*
Y48417D01*
X159807D01*
Y27391D01*
X152601Y20185D01*
X145169D01*
Y17555D01*
X136372D01*
X136288Y17868D01*
X135834Y18655D01*
X135191Y19298D01*
X134404Y19753D01*
X133525Y19988D01*
X132616D01*
X131738Y19753D01*
X130951Y19298D01*
X130308Y18655D01*
X129853Y17868D01*
X129618Y16990D01*
Y16081D01*
X129853Y15203D01*
X130308Y14415D01*
X130951Y13773D01*
X131738Y13318D01*
X132616Y13083D01*
X133525D01*
X134404Y13318D01*
X135191Y13773D01*
X135834Y14415D01*
X136288Y15203D01*
X136372Y15516D01*
X145169D01*
Y11311D01*
X154043D01*
Y18743D01*
X161548Y26248D01*
X161769Y26578D01*
X161846Y26969D01*
Y40857D01*
X162346Y41131D01*
X162831Y40930D01*
X163578D01*
X164269Y41216D01*
X164797Y41744D01*
X165083Y42434D01*
Y43181D01*
X164797Y43872D01*
X164405Y44263D01*
Y46850D01*
X164378Y46988D01*
Y48728D01*
X162705D01*
Y52354D01*
Y56307D01*
X162101D01*
Y57677D01*
X162004Y58165D01*
X161728Y58578D01*
X161721Y58586D01*
Y59035D01*
X161435Y59725D01*
X160906Y60254D01*
X160216Y60539D01*
X159469D01*
X158779Y60254D01*
X158461Y59936D01*
X155618D01*
Y60736D01*
D02*
G37*
G36*
X196169Y59949D02*
X190839D01*
Y55012D01*
X192484D01*
Y53870D01*
X190779D01*
Y48933D01*
X196110D01*
Y50441D01*
X197531D01*
Y48933D01*
X202862D01*
Y53870D01*
X197531D01*
Y52480D01*
X196110D01*
Y53870D01*
X194524D01*
Y55012D01*
X196169D01*
Y59949D01*
D02*
G37*
G36*
X83177Y53650D02*
X78240D01*
Y48319D01*
X83177D01*
Y49965D01*
X85130D01*
Y48516D01*
X90461D01*
Y53453D01*
X85130D01*
Y52004D01*
X83177D01*
Y53650D01*
D02*
G37*
G36*
X196169Y47350D02*
X190839D01*
Y42413D01*
X196169D01*
Y43862D01*
X197208D01*
X197227Y43818D01*
X197755Y43290D01*
X198445Y43004D01*
X199193D01*
X199883Y43290D01*
X200411Y43818D01*
X200697Y44508D01*
Y45255D01*
X200411Y45946D01*
X199883Y46474D01*
X199193Y46760D01*
X198445D01*
X197755Y46474D01*
X197227Y45946D01*
X197208Y45902D01*
X196169D01*
Y47350D01*
D02*
G37*
G36*
X137114Y53650D02*
X132177D01*
Y51389D01*
X132097Y50984D01*
Y47835D01*
Y44685D01*
X132177Y44280D01*
Y42020D01*
X137114D01*
Y44280D01*
X137195Y44685D01*
Y47835D01*
Y50984D01*
X137114Y51389D01*
Y53650D01*
D02*
G37*
G36*
X157193Y35933D02*
X151075D01*
Y27059D01*
X157193D01*
Y35933D01*
D02*
G37*
G36*
X366705Y223138D02*
X365484D01*
X364306Y222822D01*
X363249Y222212D01*
X362386Y221349D01*
X361776Y220292D01*
X361461Y219114D01*
Y217894D01*
X361776Y216715D01*
X362386Y215659D01*
X363249Y214796D01*
X364306Y214186D01*
X365484Y213870D01*
X366705D01*
X367883Y214186D01*
X368940Y214796D01*
X369802Y215659D01*
X370413Y216715D01*
X370728Y217894D01*
Y219114D01*
X370413Y220292D01*
X369802Y221349D01*
X368940Y222212D01*
X367883Y222822D01*
X366705Y223138D01*
D02*
G37*
G36*
X307649D02*
X306429D01*
X305251Y222822D01*
X304194Y222212D01*
X303331Y221349D01*
X302721Y220292D01*
X302406Y219114D01*
Y217894D01*
X302721Y216715D01*
X303331Y215659D01*
X304194Y214796D01*
X305251Y214186D01*
X306429Y213870D01*
X307649D01*
X308828Y214186D01*
X309885Y214796D01*
X310747Y215659D01*
X311357Y216715D01*
X311673Y217894D01*
Y219114D01*
X311357Y220292D01*
X310747Y221349D01*
X309885Y222212D01*
X308828Y222822D01*
X307649Y223138D01*
D02*
G37*
G36*
X87177D02*
X85957D01*
X84778Y222822D01*
X83722Y222212D01*
X82859Y221349D01*
X82249Y220292D01*
X81933Y219114D01*
Y217894D01*
X82249Y216715D01*
X82859Y215659D01*
X83722Y214796D01*
X84778Y214186D01*
X85957Y213870D01*
X87177D01*
X88355Y214186D01*
X89412Y214796D01*
X90275Y215659D01*
X90885Y216715D01*
X91201Y217894D01*
Y219114D01*
X90885Y220292D01*
X90275Y221349D01*
X89412Y222212D01*
X88355Y222822D01*
X87177Y223138D01*
D02*
G37*
G36*
X28122D02*
X26902D01*
X25723Y222822D01*
X24667Y222212D01*
X23804Y221349D01*
X23194Y220292D01*
X22878Y219114D01*
Y217894D01*
X23194Y216715D01*
X23804Y215659D01*
X24667Y214796D01*
X25723Y214186D01*
X26902Y213870D01*
X28122D01*
X29300Y214186D01*
X30357Y214796D01*
X31220Y215659D01*
X31830Y216715D01*
X32146Y217894D01*
Y219114D01*
X31830Y220292D01*
X31220Y221349D01*
X30357Y222212D01*
X29300Y222822D01*
X28122Y223138D01*
D02*
G37*
%LPD*%
D10*
X220472Y45079D02*
Y58661D01*
X220276Y44882D02*
X220472Y45079D01*
X198425Y66535D02*
X212598D01*
X220472Y58661D01*
X205118Y44882D02*
X213583D01*
X198819Y38583D02*
X205118Y44882D01*
X185827Y28346D02*
X189567D01*
X182677Y25197D02*
X185827Y28346D01*
X189567D02*
X191839Y30618D01*
X193307Y32283D02*
X196752D01*
X191839Y30618D02*
Y30815D01*
X193307Y32283D01*
X176665Y19185D02*
X176665D01*
X173228Y15748D02*
X176665Y19185D01*
X182677Y25197D02*
Y25197D01*
X176665Y19185D02*
X182677Y25197D01*
X186614Y72047D02*
Y73401D01*
Y63583D02*
Y72047D01*
X196752Y32283D02*
X200000D01*
X179331Y49409D02*
X181890Y46850D01*
Y41732D02*
Y46850D01*
X175787Y49409D02*
X179331D01*
X193504Y51461D02*
X200138D01*
X200197Y51402D01*
X171260Y39839D02*
X171260Y39839D01*
X171260Y35433D02*
Y46850D01*
X171260Y39839D02*
X177581D01*
X168701Y32874D02*
X171260Y35433D01*
X168701Y31496D02*
Y32874D01*
X177581Y39839D02*
X180337Y37083D01*
X186614Y32283D02*
X187008D01*
X185146Y33752D02*
Y33752D01*
X180337Y37083D02*
X181815D01*
X185146Y33752D02*
X186614Y32283D01*
X181815Y37083D02*
X185146Y33752D01*
X187008Y32283D02*
X193307Y38583D01*
X193504D02*
X198819D01*
X193307D02*
X193504D01*
Y44882D02*
X198819D01*
X262163Y108227D02*
X264961Y111024D01*
X271260D01*
X262163Y102525D02*
Y108227D01*
X256734Y102525D02*
Y108227D01*
X247638Y111024D02*
X253937D01*
X256734Y108227D01*
X133071Y16535D02*
X148819D01*
X149606Y15748D01*
X186614Y63583D02*
X186811Y63386D01*
X193445Y51402D02*
X193504Y51461D01*
Y57480D01*
X186811Y51461D02*
Y57480D01*
X186752Y51402D02*
X186811Y51461D01*
X186728Y51378D02*
X186752Y51402D01*
X175787Y51378D02*
X186728D01*
X180709Y63386D02*
X186811D01*
X179528Y62205D02*
X180709Y63386D01*
X179528Y54724D02*
Y62205D01*
X178150Y53347D02*
X179528Y54724D01*
X175787Y53347D02*
X178150D01*
X193898Y62992D02*
X198819D01*
X193504Y63386D02*
X193898Y62992D01*
X186811Y38583D02*
Y44882D01*
X178203Y41339D02*
X180959Y38583D01*
X174016Y41339D02*
X178203D01*
X180959Y38583D02*
X186811D01*
X173228Y42126D02*
Y46850D01*
Y42126D02*
X174016Y41339D01*
X128347Y44291D02*
X132980Y39658D01*
X94488Y44291D02*
X128347D01*
X134646Y37992D02*
Y38189D01*
X132980Y39658D02*
X133177D01*
X134646Y38189D01*
X127871Y55512D02*
X128659Y54724D01*
X99016Y55512D02*
X127871D01*
X128659Y54724D02*
X129134D01*
X94488Y50984D02*
X99016Y55512D01*
X163205Y42808D02*
X163386Y42989D01*
Y46850D01*
X94488Y57677D02*
X121850D01*
X129921Y65748D01*
X80709Y57677D02*
X94488D01*
X94488Y57677D01*
X87795Y50984D02*
X87795Y50984D01*
X80709Y50984D02*
X87795D01*
X101181Y50984D02*
X108661D01*
X146260Y52362D02*
X147728Y53831D01*
X148713D01*
X167323Y40290D02*
X169291Y42259D01*
X167323Y40157D02*
Y40290D01*
X169291Y42259D02*
Y46850D01*
X160827Y26969D02*
Y49409D01*
X149606Y15748D02*
X160827Y26969D01*
X152953Y40551D02*
X153150D01*
X157087Y44488D01*
Y50394D01*
X158071Y51378D02*
X160827D01*
X157087Y50394D02*
X158071Y51378D01*
X153937Y53347D02*
X160827D01*
X152953Y52362D02*
X153937Y53347D01*
X152953Y46457D02*
Y52362D01*
X152953Y52362D02*
X152953Y52362D01*
X167418Y73485D02*
X169291Y71611D01*
Y57874D02*
Y71611D01*
X167418Y73485D02*
Y73808D01*
X176378Y76690D02*
Y77165D01*
X175787Y76100D02*
X176378Y76690D01*
X175787Y55315D02*
Y76100D01*
X168504Y86141D02*
X169587Y87224D01*
Y88976D01*
X168504Y85827D02*
Y86141D01*
X180267Y84694D02*
Y88927D01*
Y84694D02*
X180315Y84646D01*
X180219Y88975D02*
X180267Y88927D01*
D20*
X247638Y111024D02*
D03*
X271260D02*
D03*
D21*
X196850Y177165D02*
D03*
Y202894D02*
D03*
D22*
X90158Y127657D02*
D03*
Y108563D02*
D03*
X303543Y127657D02*
D03*
Y108563D02*
D03*
D23*
X87795Y50984D02*
D03*
X101181D02*
D03*
X220276Y44882D02*
D03*
X213583D02*
D03*
X152953Y58268D02*
D03*
X146260D02*
D03*
X213583Y51402D02*
D03*
X220276D02*
D03*
X150591Y66535D02*
D03*
X157283D02*
D03*
Y72441D02*
D03*
X150591D02*
D03*
X193504Y57480D02*
D03*
X186811D02*
D03*
X186752Y51402D02*
D03*
X193445D02*
D03*
X186811Y63386D02*
D03*
X193504D02*
D03*
X165354Y80709D02*
D03*
X172047D02*
D03*
X206890Y51402D02*
D03*
X200197D02*
D03*
X152953Y52362D02*
D03*
X146260D02*
D03*
X193504Y44882D02*
D03*
X186811D02*
D03*
X193504Y38583D02*
D03*
X186811D02*
D03*
X146260Y40551D02*
D03*
X152953D02*
D03*
X146260Y46457D02*
D03*
X152953D02*
D03*
X193504Y32283D02*
D03*
X186811D02*
D03*
X200197D02*
D03*
X206890D02*
D03*
D24*
X94488Y44291D02*
D03*
Y57677D02*
D03*
X80709Y50984D02*
D03*
Y57677D02*
D03*
X134646Y50984D02*
D03*
Y57677D02*
D03*
Y44685D02*
D03*
Y37992D02*
D03*
X350787Y114764D02*
D03*
Y121457D02*
D03*
X358661Y114764D02*
D03*
Y121457D02*
D03*
X42913Y114764D02*
D03*
Y121457D02*
D03*
X35039Y114764D02*
D03*
Y121457D02*
D03*
D25*
X94488Y50984D02*
D03*
D26*
X146555Y80709D02*
D03*
D27*
X155905D02*
D03*
D28*
X168307Y52362D02*
D03*
D29*
X160827Y49409D02*
D03*
Y51378D02*
D03*
Y53347D02*
D03*
Y55315D02*
D03*
X175787D02*
D03*
Y53347D02*
D03*
Y51378D02*
D03*
Y49409D02*
D03*
D30*
X163386Y57874D02*
D03*
X165354D02*
D03*
X167323D02*
D03*
X169291D02*
D03*
X171260D02*
D03*
X173228D02*
D03*
Y46850D02*
D03*
X171260D02*
D03*
X169291D02*
D03*
X167323D02*
D03*
X165354D02*
D03*
X163386D02*
D03*
D31*
X216339Y116142D02*
D03*
D32*
X177362D02*
D03*
D33*
X149606Y15748D02*
D03*
X173228D02*
D03*
D34*
X145079Y31496D02*
D03*
X154134D02*
D03*
X168701D02*
D03*
X177756D02*
D03*
D35*
X338976Y124803D02*
D03*
Y111417D02*
D03*
X325197Y124803D02*
D03*
Y111417D02*
D03*
X68504Y124803D02*
D03*
Y111417D02*
D03*
X54724Y124803D02*
D03*
Y111417D02*
D03*
D58*
X169587Y88976D02*
D03*
X180219Y88975D02*
D03*
D59*
X172687Y88976D02*
D03*
X183319Y88975D02*
D03*
D60*
X171653Y90945D02*
D03*
Y94882D02*
D03*
X182286Y90944D02*
D03*
Y94881D02*
D03*
D61*
X171653Y96850D02*
D03*
Y92913D02*
D03*
X182286Y96849D02*
D03*
Y92912D02*
D03*
D62*
X134646Y61811D02*
Y107874D01*
Y57677D02*
Y61811D01*
X143567Y37992D02*
X146126Y40551D01*
X134646Y37992D02*
X143567D01*
X146126Y40551D02*
X146260D01*
X134646Y44685D02*
Y47835D01*
Y50984D01*
D63*
X159843Y58661D02*
X160827Y57677D01*
X152953Y58268D02*
X153347Y58661D01*
X160827Y55315D02*
Y57677D01*
X153347Y58661D02*
X159843D01*
D64*
X186614Y72047D02*
D03*
X108661Y50984D02*
D03*
X133071Y16535D02*
D03*
X334646Y155630D02*
D03*
X125591Y110630D02*
D03*
X334646Y80575D02*
D03*
X59055Y80590D02*
D03*
D65*
X366094Y198819D02*
D03*
X307039D02*
D03*
X27512D02*
D03*
X86567D02*
D03*
D66*
X366094Y218504D02*
D03*
X307039D02*
D03*
X27512D02*
D03*
X86567D02*
D03*
D67*
X366142Y155630D02*
D03*
X27559D02*
D03*
X366142Y80590D02*
D03*
X27559D02*
D03*
D68*
X127165Y181890D02*
D03*
X138845D02*
D03*
Y170210D02*
D03*
X127165D02*
D03*
X90551Y182283D02*
D03*
X102231D02*
D03*
Y170604D02*
D03*
X90551D02*
D03*
X51181Y182677D02*
D03*
X62861D02*
D03*
Y170997D02*
D03*
X51181D02*
D03*
X145407Y186221D02*
D03*
Y174541D02*
D03*
Y162861D02*
D03*
Y127822D02*
D03*
Y139501D02*
D03*
Y151181D02*
D03*
X157087D02*
D03*
Y139501D02*
D03*
Y127822D02*
D03*
Y162861D02*
D03*
Y174541D02*
D03*
Y186221D02*
D03*
X151971Y96458D02*
D03*
X156695D02*
D03*
X161813D02*
D03*
Y89371D02*
D03*
X156695D02*
D03*
X151971D02*
D03*
X330711Y122048D02*
D03*
X336091D02*
D03*
X341472D02*
D03*
X353842Y204593D02*
D03*
X342163D02*
D03*
X330483D02*
D03*
X295444D02*
D03*
X318803D02*
D03*
X283764D02*
D03*
Y192913D02*
D03*
X318803D02*
D03*
X295444D02*
D03*
X330483D02*
D03*
X342163D02*
D03*
X353842D02*
D03*
X39764D02*
D03*
X51444D02*
D03*
X63123D02*
D03*
X98163D02*
D03*
X74803D02*
D03*
X109842D02*
D03*
Y204593D02*
D03*
X74803D02*
D03*
X98163D02*
D03*
X63123D02*
D03*
X51444D02*
D03*
X39764D02*
D03*
X8661Y9055D02*
D03*
X20341D02*
D03*
X32021D02*
D03*
X67060D02*
D03*
X55380D02*
D03*
X43701D02*
D03*
X78740Y32415D02*
D03*
Y9055D02*
D03*
Y20735D02*
D03*
X43701D02*
D03*
X55380D02*
D03*
X67060D02*
D03*
X32021D02*
D03*
X20341D02*
D03*
X8661D02*
D03*
X43701Y32415D02*
D03*
X55380D02*
D03*
X67060D02*
D03*
X32021D02*
D03*
X20341D02*
D03*
X8661D02*
D03*
X78740Y44094D02*
D03*
X43701D02*
D03*
X55380D02*
D03*
X67060D02*
D03*
X32021D02*
D03*
X20341D02*
D03*
X8661D02*
D03*
X317454Y89501D02*
D03*
Y77821D02*
D03*
Y66142D02*
D03*
Y31102D02*
D03*
Y42782D02*
D03*
Y54462D02*
D03*
Y19423D02*
D03*
X305774Y89501D02*
D03*
Y77821D02*
D03*
Y66142D02*
D03*
Y31102D02*
D03*
Y42782D02*
D03*
Y54462D02*
D03*
Y19423D02*
D03*
X294094Y89501D02*
D03*
Y77821D02*
D03*
Y66142D02*
D03*
Y31102D02*
D03*
Y42782D02*
D03*
Y54462D02*
D03*
X282415Y19423D02*
D03*
X294094D02*
D03*
X282415Y54462D02*
D03*
Y42782D02*
D03*
Y31102D02*
D03*
Y66142D02*
D03*
Y77821D02*
D03*
Y89501D02*
D03*
X255118Y65354D02*
D03*
Y70735D02*
D03*
Y76116D02*
D03*
Y81496D02*
D03*
X192913Y9711D02*
D03*
Y15092D02*
D03*
Y20472D02*
D03*
X129331Y25066D02*
D03*
Y30446D02*
D03*
Y35827D02*
D03*
X129724Y73884D02*
D03*
Y79265D02*
D03*
Y84646D02*
D03*
X12467Y122047D02*
D03*
X17848D02*
D03*
X23228D02*
D03*
X12467Y115354D02*
D03*
X17848D02*
D03*
X23228D02*
D03*
X370472Y114173D02*
D03*
X375853D02*
D03*
X381234D02*
D03*
X260236Y57480D02*
D03*
X256693Y53937D02*
D03*
X253150Y50000D02*
D03*
X249213Y46063D02*
D03*
X245276Y42126D02*
D03*
X237008Y45276D02*
D03*
X240945Y49213D02*
D03*
X244882Y53150D02*
D03*
X248425Y57087D02*
D03*
X251969Y60630D02*
D03*
X263779Y97638D02*
D03*
Y92257D02*
D03*
Y86877D02*
D03*
Y81496D02*
D03*
Y76116D02*
D03*
Y70735D02*
D03*
Y65354D02*
D03*
X255118Y86877D02*
D03*
Y92257D02*
D03*
Y97638D02*
D03*
X201969Y89370D02*
D03*
X197244D02*
D03*
X192126D02*
D03*
Y96457D02*
D03*
X197244D02*
D03*
X201969D02*
D03*
X94882Y39764D02*
D03*
X140551Y38189D02*
D03*
X157874Y37795D02*
D03*
X150000Y23622D02*
D03*
X173228Y23228D02*
D03*
X211417Y32283D02*
D03*
X206299Y57874D02*
D03*
X216535D02*
D03*
X211024Y62992D02*
D03*
X198425Y66535D02*
D03*
X164567Y66142D02*
D03*
X181890Y41732D02*
D03*
X196752Y32283D02*
D03*
X198819Y38583D02*
D03*
Y44882D02*
D03*
X262163Y102525D02*
D03*
X256734D02*
D03*
X198819Y62992D02*
D03*
X163205Y42808D02*
D03*
X129134Y54724D02*
D03*
X144488Y76772D02*
D03*
X129921Y65748D02*
D03*
X134646Y61811D02*
D03*
X148713Y53831D02*
D03*
X167323Y40157D02*
D03*
X134646Y47835D02*
D03*
X159843Y58661D02*
D03*
X162992Y73622D02*
D03*
X167418Y73808D02*
D03*
X176378Y77165D02*
D03*
X168504Y85827D02*
D03*
X180315Y84646D02*
D03*
M02*
