M48
;Layer_Color=9474304
;FILE_FORMAT=2:5
INCH,LZ
;TYPE=PLATED
T1F00S00C0.01575
T2F00S00C0.03937
T3F00S00C0.06299
T4F00S00C0.20866
%
T01
X0008661Y0009055
X0020341
X0032021
X0043701
X005538
X006706
X007874
Y0020735
Y0032415
X006706
Y0020735
X005538
X0043701
X0032021
X0020341
X0008661
Y0032415
X0020341
X0032021
X0043701
X005538
Y0044094
X0043701
X0032021
X0020341
X0008661
X006706
X007874
X0094882Y0039764
X0129331Y0035827
Y0030446
Y0025066
X015Y0023622
X0140551Y0038189
X0134646Y0047835
X0129134Y0054724
X0129921Y0065748
X0129724Y0073884
X0134646Y0061811
X0148713Y0053831
X0144488Y0076772
X0162992Y0073622
X0167418Y0073808
X0164567Y0066142
X0159843Y0058661
X0163205Y0042808
X0167323Y0040157
X0157874Y0037795
X018189Y0041732
X0198819Y0038583
Y0044882
X0196752Y0032283
X0211417
X0192913Y0020472
Y0015092
Y0009711
X0173228Y0023228
X0176378Y0077165
X0198425Y0066535
X0198819Y0062992
X0211024
X0206299Y0057874
X0216535
X0248425Y0057087
X0251969Y006063
X0255118Y0065354
Y0070735
Y0076116
X0263779
Y0070735
Y0065354
X0260236Y005748
X0256693Y0053937
X025315Y005
X0249213Y0046063
X0245276Y0042126
X0237008Y0045276
X0240945Y0049213
X0244882Y005315
X0282415Y0054462
X0294094
X0305774
Y0066142
X0294094
X0282415
Y0042782
X0294094
X0305774
Y0031102
Y0019423
X0294094
Y0031102
X0282415
Y0019423
X0317454
Y0031102
Y0042782
Y0054462
Y0066142
Y0077821
Y0089501
X0330711Y0122048
X0336091
X0341472
X0370472Y0114173
X0375853
X0381234
X0353842Y0192913
Y0204593
X0342163
X0330483
X0318803
Y0192913
X0330483
X0342163
X0295444
Y0204593
X0283764
Y0192913
X0282415Y0089501
X0294094
X0305774
Y0077821
X0294094
X0282415
X0263779Y0081496
Y0086877
Y0092257
Y0097638
X0262163Y0102525
X0256734
X0255118Y0097638
Y0092257
Y0086877
Y0081496
X0201969Y008937
X0197244
X0192126
Y0096457
X0197244
X0201969
X0180315Y0084646
X0168504Y0085827
X0161813Y0089371
X0156695
Y0096458
X0161813
X0157087Y0127822
Y0139501
Y0151181
Y0162861
Y0174541
Y0186221
X0145407
X0138845Y018189
X0127165
Y017021
X0138845
X0145407Y0174541
Y0162861
Y0151181
Y0139501
Y0127822
X0151971Y0096458
Y0089371
X0129724Y0084646
Y0079265
X0102231Y0170604
Y0182283
X0090551
Y0170604
X0062861Y0170997
Y0182677
X0063123Y0192913
X0051444
X0051181Y0182677
Y0170997
X0039764Y0192913
Y0204593
X0051444
X0063123
X0074803
Y0192913
X0098163
X0109842
Y0204593
X0098163
X0023228Y0122047
X0017848
X0012467
Y0115354
X0017848
X0023228
T02
X0133071Y0016535
X0108661Y0050984
X0186614Y0072047
X0334646Y0080575
Y015563
X0125591Y011063
X0059055Y008059
T03
X0366094Y0198819
Y0218504
X0307039
Y0198819
X0086567
Y0218504
X0027512
Y0198819
T04
X0366142Y008059
Y015563
X0027559
Y008059
M30
