G04*
G04 #@! TF.GenerationSoftware,Altium Limited,Altium Designer,21.3.2 (30)*
G04*
G04 Layer_Color=8388736*
%FSLAX25Y25*%
%MOIN*%
G70*
G04*
G04 #@! TF.SameCoordinates,58D38C34-9AFC-4311-94A1-E66397908E57*
G04*
G04*
G04 #@! TF.FilePolarity,Negative*
G04*
G01*
G75*
G04:AMPARAMS|DCode=18|XSize=9.06mil|YSize=31.69mil|CornerRadius=2.26mil|HoleSize=0mil|Usage=FLASHONLY|Rotation=90.000|XOffset=0mil|YOffset=0mil|HoleType=Round|Shape=RoundedRectangle|*
%AMROUNDEDRECTD18*
21,1,0.00906,0.02717,0,0,90.0*
21,1,0.00453,0.03169,0,0,90.0*
1,1,0.00453,0.01358,0.00226*
1,1,0.00453,0.01358,-0.00226*
1,1,0.00453,-0.01358,-0.00226*
1,1,0.00453,-0.01358,0.00226*
%
%ADD18ROUNDEDRECTD18*%
G04:AMPARAMS|DCode=19|XSize=9.06mil|YSize=11.02mil|CornerRadius=2.26mil|HoleSize=0mil|Usage=FLASHONLY|Rotation=90.000|XOffset=0mil|YOffset=0mil|HoleType=Round|Shape=RoundedRectangle|*
%AMROUNDEDRECTD19*
21,1,0.00906,0.00650,0,0,90.0*
21,1,0.00453,0.01102,0,0,90.0*
1,1,0.00453,0.00325,0.00226*
1,1,0.00453,0.00325,-0.00226*
1,1,0.00453,-0.00325,-0.00226*
1,1,0.00453,-0.00325,0.00226*
%
%ADD19ROUNDEDRECTD19*%
G04:AMPARAMS|DCode=36|XSize=9.06mil|YSize=52.36mil|CornerRadius=2.26mil|HoleSize=0mil|Usage=FLASHONLY|Rotation=90.000|XOffset=0mil|YOffset=0mil|HoleType=Round|Shape=RoundedRectangle|*
%AMROUNDEDRECTD36*
21,1,0.00906,0.04784,0,0,90.0*
21,1,0.00453,0.05236,0,0,90.0*
1,1,0.00453,0.02392,0.00226*
1,1,0.00453,0.02392,-0.00226*
1,1,0.00453,-0.02392,-0.00226*
1,1,0.00453,-0.02392,0.00226*
%
%ADD36ROUNDEDRECTD36*%
G04:AMPARAMS|DCode=37|XSize=9.06mil|YSize=45.47mil|CornerRadius=2.26mil|HoleSize=0mil|Usage=FLASHONLY|Rotation=90.000|XOffset=0mil|YOffset=0mil|HoleType=Round|Shape=RoundedRectangle|*
%AMROUNDEDRECTD37*
21,1,0.00906,0.04095,0,0,90.0*
21,1,0.00453,0.04547,0,0,90.0*
1,1,0.00453,0.02047,0.00226*
1,1,0.00453,0.02047,-0.00226*
1,1,0.00453,-0.02047,-0.00226*
1,1,0.00453,-0.02047,0.00226*
%
%ADD37ROUNDEDRECTD37*%
%ADD38R,0.07296X0.13989*%
%ADD39R,0.25800X0.21587*%
%ADD40R,0.08083X0.14186*%
%ADD41R,0.05131X0.04737*%
%ADD42R,0.04737X0.05131*%
%ADD43R,0.05131X0.05131*%
%ADD44R,0.04934X0.06706*%
%ADD45R,0.10249X0.06706*%
%ADD46R,0.11233X0.07296*%
%ADD47R,0.03556X0.01784*%
%ADD48R,0.01784X0.03556*%
%ADD49R,0.21784X0.24028*%
%ADD50R,0.21784X0.22808*%
%ADD51R,0.08674X0.08674*%
%ADD52R,0.05918X0.08674*%
%ADD53R,0.11036X0.08674*%
%ADD54C,0.06706*%
%ADD55R,0.09068X0.09068*%
%ADD56C,0.09068*%
%ADD57C,0.40170*%
G36*
X102067Y162919D02*
X102315Y161156D01*
X104550Y160162D01*
X105196Y160759D01*
X106463Y161404D01*
X107878Y160138D01*
X106524Y158042D01*
X107305Y156018D01*
X109711Y155620D01*
X109663Y153548D01*
X107480Y153150D01*
X106636Y151030D01*
X108074Y149160D01*
X106577Y147527D01*
X104467Y148616D01*
X104195D01*
X104101Y148522D01*
X103543Y148671D01*
X102202Y151991D01*
X102535Y152358D01*
X103656Y153847D01*
X103376Y155685D01*
X102658Y156736D01*
X101029Y157279D01*
X100119Y157191D01*
X98998Y156579D01*
X98193Y155493D01*
X98105Y154285D01*
X98368Y153199D01*
X98945Y152533D01*
X99506Y152008D01*
X98035Y148471D01*
X97212Y148804D01*
X97002Y148664D01*
X95268Y147701D01*
X93902Y149049D01*
X95076Y151150D01*
X94200Y153129D01*
X91987Y153417D01*
Y155598D01*
X94044Y155965D01*
X95286Y158002D01*
X93821Y160138D01*
X95286Y161603D01*
X97323Y160237D01*
X99384Y161082D01*
X99657Y162969D01*
X99980Y163466D01*
X101868Y163515D01*
X102067Y162919D01*
D02*
G37*
G36*
X263369Y31210D02*
X264452D01*
Y31120D01*
X264813D01*
Y31029D01*
X265354D01*
Y30939D01*
X265625D01*
Y30849D01*
X266076D01*
Y30759D01*
X266347D01*
Y30669D01*
X266617D01*
Y30578D01*
X266888D01*
Y30488D01*
X267159D01*
Y30398D01*
X267429D01*
Y30308D01*
X267610D01*
Y30217D01*
X267790D01*
Y30127D01*
X268061D01*
Y30037D01*
X268241D01*
Y29947D01*
X268422D01*
Y29856D01*
X268602D01*
Y29766D01*
X268783D01*
Y29676D01*
X268963D01*
Y29586D01*
X269144D01*
Y29495D01*
X269324D01*
Y29405D01*
X269414D01*
Y29315D01*
X269595D01*
Y29225D01*
X269775D01*
Y29135D01*
X269865D01*
Y29044D01*
X270046D01*
Y28954D01*
X270136D01*
Y28864D01*
X270317D01*
Y28774D01*
X270407D01*
Y28684D01*
X270587D01*
Y28593D01*
X270678D01*
Y28503D01*
X270768D01*
Y28413D01*
X270948D01*
Y28323D01*
X271039D01*
Y28232D01*
X271129D01*
Y28142D01*
X271219D01*
Y28052D01*
X271309D01*
Y27962D01*
X271490D01*
Y27871D01*
X271580D01*
Y27781D01*
X271670D01*
Y27691D01*
X271760D01*
Y27601D01*
X271850D01*
Y27510D01*
X271941D01*
Y27420D01*
Y27330D01*
X272031D01*
Y27240D01*
X272121D01*
Y27150D01*
X272212D01*
Y27059D01*
Y26969D01*
X272302D01*
Y26879D01*
X272392D01*
Y26789D01*
Y26698D01*
X272482D01*
Y26608D01*
Y26518D01*
X272572D01*
Y26428D01*
Y26338D01*
Y26247D01*
Y26157D01*
X272663D01*
Y26067D01*
Y25977D01*
Y25886D01*
Y25796D01*
Y25706D01*
Y25616D01*
Y25526D01*
Y25435D01*
Y25345D01*
X272572D01*
Y25255D01*
Y25165D01*
Y25074D01*
Y24984D01*
X272482D01*
Y24894D01*
Y24804D01*
Y24713D01*
Y24623D01*
X272392D01*
Y24533D01*
Y24443D01*
X272302D01*
Y24352D01*
Y24262D01*
Y24172D01*
X272212D01*
Y24082D01*
Y23992D01*
Y23901D01*
X272121D01*
Y23811D01*
Y23721D01*
Y23631D01*
X272031D01*
Y23540D01*
Y23450D01*
Y23360D01*
Y23270D01*
X271941D01*
Y23179D01*
Y23089D01*
Y22999D01*
X271850D01*
Y22909D01*
Y22819D01*
Y22728D01*
X271760D01*
Y22638D01*
Y22548D01*
Y22458D01*
X271670D01*
Y22367D01*
Y22277D01*
Y22187D01*
X271580D01*
Y22097D01*
Y22007D01*
Y21916D01*
X271490D01*
Y21826D01*
Y21736D01*
Y21646D01*
Y21555D01*
X271399D01*
Y21465D01*
Y21375D01*
Y21285D01*
X271309D01*
Y21194D01*
Y21104D01*
Y21014D01*
X271219D01*
Y20924D01*
Y20834D01*
Y20743D01*
X271129D01*
Y20653D01*
Y20563D01*
Y20473D01*
X271039D01*
Y20382D01*
Y20292D01*
Y20202D01*
X270948D01*
Y20112D01*
Y20021D01*
Y19931D01*
Y19841D01*
X270858D01*
Y19751D01*
Y19661D01*
Y19570D01*
X270768D01*
Y19480D01*
Y19390D01*
Y19300D01*
X270678D01*
Y19209D01*
Y19119D01*
Y19029D01*
X270587D01*
Y18939D01*
Y18849D01*
Y18758D01*
X270497D01*
Y18668D01*
Y18578D01*
Y18488D01*
X270407D01*
Y18397D01*
Y18307D01*
Y18217D01*
Y18127D01*
X270317D01*
Y18036D01*
Y17946D01*
Y17856D01*
X270226D01*
Y17766D01*
Y17676D01*
Y17585D01*
X270136D01*
Y17495D01*
Y17405D01*
Y17315D01*
Y17224D01*
X270046D01*
Y17134D01*
Y17044D01*
Y16954D01*
X269956D01*
Y16864D01*
Y16773D01*
Y16683D01*
X269865D01*
Y16593D01*
Y16503D01*
Y16412D01*
X269775D01*
Y16322D01*
Y16232D01*
Y16142D01*
X269685D01*
Y16051D01*
Y15961D01*
Y15871D01*
X269595D01*
Y15781D01*
Y15691D01*
Y15600D01*
Y15510D01*
X269505D01*
Y15420D01*
Y15330D01*
Y15239D01*
X269414D01*
Y15149D01*
Y15059D01*
X269324D01*
Y14969D01*
Y14878D01*
Y14788D01*
X269234D01*
Y14698D01*
Y14608D01*
X269144D01*
Y14518D01*
Y14427D01*
X269054D01*
Y14337D01*
Y14247D01*
X268963D01*
Y14157D01*
Y14066D01*
X268873D01*
Y13976D01*
Y13886D01*
X268783D01*
Y13796D01*
X268692D01*
Y13706D01*
X268602D01*
Y13615D01*
Y13525D01*
X268512D01*
Y13435D01*
X268422D01*
Y13345D01*
X268332D01*
Y13254D01*
X268241D01*
Y13164D01*
X268061D01*
Y13074D01*
X267971D01*
Y12984D01*
X267881D01*
Y12893D01*
X267700D01*
Y12803D01*
X267520D01*
Y12713D01*
X267339D01*
Y12623D01*
X267159D01*
Y12533D01*
X266978D01*
Y12442D01*
X266798D01*
Y12352D01*
X266527D01*
Y12262D01*
X266256D01*
Y12172D01*
X265986D01*
Y12082D01*
X265715D01*
Y11991D01*
X265264D01*
Y11901D01*
X264993D01*
Y11811D01*
X264362D01*
Y11721D01*
X263098D01*
Y11630D01*
X262828D01*
Y11721D01*
X261655D01*
Y11811D01*
X261113D01*
Y11901D01*
X260752D01*
Y11991D01*
X260391D01*
Y12082D01*
X260211D01*
Y12172D01*
X259940D01*
Y12262D01*
X259670D01*
Y12352D01*
X259489D01*
Y12442D01*
X259309D01*
Y12533D01*
X259128D01*
Y12623D01*
X259038D01*
Y12713D01*
X258858D01*
Y12803D01*
X258677D01*
Y12893D01*
X258587D01*
Y12984D01*
X258497D01*
Y13074D01*
X258406D01*
Y13164D01*
X258316D01*
Y13254D01*
X258226D01*
Y13345D01*
X258136D01*
Y13435D01*
X258046D01*
Y13525D01*
X257955D01*
Y13615D01*
X257865D01*
Y13706D01*
X257775D01*
Y13796D01*
X257685D01*
Y13886D01*
Y13976D01*
X257594D01*
Y14066D01*
X257504D01*
Y14157D01*
Y14247D01*
X257414D01*
Y14337D01*
Y14427D01*
X257324D01*
Y14518D01*
X257234D01*
Y14608D01*
Y14698D01*
X257143D01*
Y14788D01*
Y14878D01*
X257053D01*
Y14969D01*
Y15059D01*
X256963D01*
Y15149D01*
Y15239D01*
X256873D01*
Y15330D01*
Y15420D01*
Y15510D01*
X256782D01*
Y15600D01*
Y15691D01*
X256692D01*
Y15781D01*
Y15871D01*
X256602D01*
Y15961D01*
Y16051D01*
X256512D01*
Y16142D01*
Y16232D01*
Y16322D01*
X256421D01*
Y16412D01*
Y16503D01*
X256331D01*
Y16593D01*
Y16683D01*
Y16773D01*
X256241D01*
Y16864D01*
Y16954D01*
Y17044D01*
X256151D01*
Y17134D01*
Y17224D01*
X256061D01*
Y17315D01*
Y17405D01*
X255970D01*
Y17495D01*
Y17585D01*
Y17676D01*
X255880D01*
Y17766D01*
Y17856D01*
X255790D01*
Y17946D01*
Y18036D01*
Y18127D01*
X255700D01*
Y18217D01*
Y18307D01*
X255609D01*
Y18397D01*
Y18488D01*
Y18578D01*
X255519D01*
Y18668D01*
Y18758D01*
X255429D01*
Y18849D01*
Y18939D01*
Y19029D01*
X255339D01*
Y19119D01*
Y19209D01*
X255248D01*
Y19300D01*
Y19390D01*
Y19480D01*
X255158D01*
Y19570D01*
Y19661D01*
Y19751D01*
X255068D01*
Y19841D01*
Y19931D01*
X254978D01*
Y20021D01*
Y20112D01*
X254888D01*
Y20202D01*
Y20292D01*
Y20382D01*
X254797D01*
Y20473D01*
Y20563D01*
X254707D01*
Y20653D01*
Y20743D01*
Y20834D01*
X254617D01*
Y20924D01*
Y21014D01*
X254527D01*
Y21104D01*
Y21194D01*
Y21285D01*
X254436D01*
Y21375D01*
Y21465D01*
X254346D01*
Y21555D01*
Y21646D01*
Y21736D01*
X254256D01*
Y21826D01*
Y21916D01*
X254166D01*
Y22007D01*
Y22097D01*
Y22187D01*
X254076D01*
Y22277D01*
Y22367D01*
X253985D01*
Y22458D01*
Y22548D01*
X253895D01*
Y22638D01*
Y22728D01*
Y22819D01*
X253805D01*
Y22909D01*
Y22999D01*
X253715D01*
Y23089D01*
Y23179D01*
Y23270D01*
X253624D01*
Y23360D01*
Y23450D01*
Y23540D01*
X253534D01*
Y23631D01*
Y23721D01*
X253444D01*
Y23811D01*
Y23901D01*
Y23992D01*
X253354D01*
Y24082D01*
Y24172D01*
X253263D01*
Y24262D01*
Y24352D01*
Y24443D01*
X253173D01*
Y24533D01*
Y24623D01*
X253083D01*
Y24713D01*
Y24804D01*
Y24894D01*
X252993D01*
Y24984D01*
Y25074D01*
Y25165D01*
Y25255D01*
X252903D01*
Y25345D01*
Y25435D01*
Y25526D01*
X252812D01*
Y25616D01*
Y25706D01*
Y25796D01*
Y25886D01*
Y25977D01*
Y26067D01*
Y26157D01*
Y26247D01*
Y26338D01*
Y26428D01*
Y26518D01*
Y26608D01*
X252903D01*
Y26698D01*
Y26789D01*
Y26879D01*
X252993D01*
Y26969D01*
Y27059D01*
X253083D01*
Y27150D01*
Y27240D01*
X253173D01*
Y27330D01*
X253263D01*
Y27420D01*
Y27510D01*
X253354D01*
Y27601D01*
X253444D01*
Y27691D01*
X253534D01*
Y27781D01*
X253624D01*
Y27871D01*
X253715D01*
Y27962D01*
X253805D01*
Y28052D01*
X253895D01*
Y28142D01*
X253985D01*
Y28232D01*
X254076D01*
Y28323D01*
X254166D01*
Y28413D01*
X254346D01*
Y28503D01*
X254436D01*
Y28593D01*
X254527D01*
Y28684D01*
X254707D01*
Y28774D01*
X254797D01*
Y28864D01*
X254978D01*
Y28954D01*
X255068D01*
Y29044D01*
X255248D01*
Y29135D01*
X255429D01*
Y29225D01*
X255519D01*
Y29315D01*
X255700D01*
Y29405D01*
X255880D01*
Y29495D01*
X256061D01*
Y29586D01*
X256241D01*
Y29676D01*
X256421D01*
Y29766D01*
X256602D01*
Y29856D01*
X256782D01*
Y29947D01*
X256963D01*
Y30037D01*
X257143D01*
Y30127D01*
X257414D01*
Y30217D01*
X257685D01*
Y30308D01*
X257865D01*
Y30398D01*
X258136D01*
Y30488D01*
X258406D01*
Y30578D01*
X258677D01*
Y30669D01*
X259038D01*
Y30759D01*
X259309D01*
Y30849D01*
X259760D01*
Y30939D01*
X260031D01*
Y31029D01*
X260572D01*
Y31120D01*
X261023D01*
Y31210D01*
X262106D01*
Y31300D01*
X263369D01*
Y31210D01*
D02*
G37*
G36*
X274648Y25255D02*
X274918D01*
Y25165D01*
X275189D01*
Y25074D01*
X275369D01*
Y24984D01*
X275640D01*
Y24894D01*
X275821D01*
Y24804D01*
X276091D01*
Y24713D01*
X276272D01*
Y24623D01*
X276542D01*
Y24533D01*
X276723D01*
Y24443D01*
X276903D01*
Y24352D01*
X277084D01*
Y24262D01*
X277264D01*
Y24172D01*
X277535D01*
Y24082D01*
X277625D01*
Y23992D01*
X277806D01*
Y23901D01*
X277986D01*
Y23811D01*
X278167D01*
Y23721D01*
X278347D01*
Y23631D01*
X278437D01*
Y23540D01*
X278618D01*
Y23450D01*
X278798D01*
Y23360D01*
X278888D01*
Y23270D01*
X278978D01*
Y23179D01*
X279159D01*
Y23089D01*
X279249D01*
Y22999D01*
X279340D01*
Y22909D01*
X279430D01*
Y22819D01*
X279520D01*
Y22728D01*
X279610D01*
Y22638D01*
X279700D01*
Y22548D01*
X279791D01*
Y22458D01*
Y22367D01*
X279881D01*
Y22277D01*
Y22187D01*
X279971D01*
Y22097D01*
Y22007D01*
X280061D01*
Y21916D01*
Y21826D01*
Y21736D01*
Y21646D01*
Y21555D01*
Y21465D01*
Y21375D01*
Y21285D01*
Y21194D01*
Y21104D01*
Y21014D01*
Y20924D01*
Y20834D01*
Y20743D01*
X279971D01*
Y20653D01*
Y20563D01*
Y20473D01*
Y20382D01*
X279881D01*
Y20292D01*
Y20202D01*
X279791D01*
Y20112D01*
Y20021D01*
Y19931D01*
X279700D01*
Y19841D01*
Y19751D01*
Y19661D01*
X279610D01*
Y19570D01*
Y19480D01*
X279520D01*
Y19390D01*
Y19300D01*
X279430D01*
Y19209D01*
Y19119D01*
Y19029D01*
X279340D01*
Y18939D01*
Y18849D01*
X279249D01*
Y18758D01*
Y18668D01*
X279159D01*
Y18578D01*
Y18488D01*
X279069D01*
Y18397D01*
Y18307D01*
X278978D01*
Y18217D01*
Y18127D01*
X278888D01*
Y18036D01*
X278798D01*
Y17946D01*
Y17856D01*
X278708D01*
Y17766D01*
X278618D01*
Y17676D01*
Y17585D01*
X278527D01*
Y17495D01*
Y17405D01*
X278437D01*
Y17315D01*
X278347D01*
Y17224D01*
Y17134D01*
X278257D01*
Y17044D01*
Y16954D01*
X278167D01*
Y16864D01*
X278076D01*
Y16773D01*
Y16683D01*
X277986D01*
Y16593D01*
Y16503D01*
X277896D01*
Y16412D01*
X277806D01*
Y16322D01*
Y16232D01*
X277715D01*
Y16142D01*
X277625D01*
Y16051D01*
Y15961D01*
X277535D01*
Y15871D01*
Y15781D01*
X277445D01*
Y15691D01*
X277354D01*
Y15600D01*
Y15510D01*
X277264D01*
Y15420D01*
Y15330D01*
X277174D01*
Y15239D01*
X277084D01*
Y15149D01*
Y15059D01*
X276994D01*
Y14969D01*
X276903D01*
Y14878D01*
Y14788D01*
X276813D01*
Y14698D01*
Y14608D01*
X276723D01*
Y14518D01*
X276633D01*
Y14427D01*
Y14337D01*
X276542D01*
Y14247D01*
X276452D01*
Y14157D01*
Y14066D01*
X276362D01*
Y13976D01*
X276272D01*
Y13886D01*
Y13796D01*
X276182D01*
Y13706D01*
X276091D01*
Y13615D01*
Y13525D01*
X276001D01*
Y13435D01*
X275911D01*
Y13345D01*
Y13254D01*
X275821D01*
Y13164D01*
X275730D01*
Y13074D01*
Y12984D01*
X275640D01*
Y12893D01*
X275550D01*
Y12803D01*
Y12713D01*
X275460D01*
Y12623D01*
X275369D01*
Y12533D01*
X275279D01*
Y12442D01*
Y12352D01*
X275189D01*
Y12262D01*
X275099D01*
Y12172D01*
X275009D01*
Y12082D01*
X274918D01*
Y11991D01*
Y11901D01*
X274828D01*
Y11811D01*
X274738D01*
Y11721D01*
X274648D01*
Y11630D01*
X274557D01*
Y11540D01*
X274377D01*
Y11450D01*
X274287D01*
Y11360D01*
X274197D01*
Y11269D01*
X274016D01*
Y11179D01*
X273836D01*
Y11089D01*
X272663D01*
Y11179D01*
X272302D01*
Y11269D01*
X272031D01*
Y11360D01*
X271760D01*
Y11450D01*
X271580D01*
Y11540D01*
X271309D01*
Y11630D01*
X271129D01*
Y11721D01*
X270858D01*
Y11811D01*
X270678D01*
Y11901D01*
X270497D01*
Y11991D01*
X270226D01*
Y12082D01*
X270046D01*
Y12172D01*
X269865D01*
Y12262D01*
X269956D01*
Y12352D01*
X270046D01*
Y12442D01*
X270136D01*
Y12533D01*
X270226D01*
Y12623D01*
Y12713D01*
X270317D01*
Y12803D01*
X270407D01*
Y12893D01*
X270497D01*
Y12984D01*
Y13074D01*
X270587D01*
Y13164D01*
Y13254D01*
X270678D01*
Y13345D01*
Y13435D01*
X270768D01*
Y13525D01*
Y13615D01*
X270858D01*
Y13706D01*
Y13796D01*
X270948D01*
Y13886D01*
Y13976D01*
X271039D01*
Y14066D01*
Y14157D01*
X271129D01*
Y14247D01*
Y14337D01*
Y14427D01*
X271219D01*
Y14518D01*
Y14608D01*
Y14698D01*
X271309D01*
Y14788D01*
Y14878D01*
Y14969D01*
X271399D01*
Y15059D01*
Y15149D01*
Y15239D01*
X271490D01*
Y15330D01*
Y15420D01*
Y15510D01*
X271580D01*
Y15600D01*
Y15691D01*
Y15781D01*
Y15871D01*
X271670D01*
Y15961D01*
Y16051D01*
X271760D01*
Y16142D01*
Y16232D01*
Y16322D01*
Y16412D01*
X271850D01*
Y16503D01*
Y16593D01*
Y16683D01*
X271941D01*
Y16773D01*
Y16864D01*
Y16954D01*
X272031D01*
Y17044D01*
Y17134D01*
Y17224D01*
Y17315D01*
X272121D01*
Y17405D01*
Y17495D01*
X272212D01*
Y17585D01*
Y17676D01*
Y17766D01*
Y17856D01*
X272302D01*
Y17946D01*
Y18036D01*
X272392D01*
Y18127D01*
Y18217D01*
Y18307D01*
Y18397D01*
X272482D01*
Y18488D01*
Y18578D01*
Y18668D01*
X272572D01*
Y18758D01*
Y18849D01*
Y18939D01*
X272663D01*
Y19029D01*
Y19119D01*
Y19209D01*
Y19300D01*
X272753D01*
Y19390D01*
Y19480D01*
X272843D01*
Y19570D01*
Y19661D01*
Y19751D01*
Y19841D01*
X272933D01*
Y19931D01*
Y20021D01*
Y20112D01*
X273024D01*
Y20202D01*
Y20292D01*
Y20382D01*
X273114D01*
Y20473D01*
Y20563D01*
Y20653D01*
Y20743D01*
X273204D01*
Y20834D01*
Y20924D01*
X273294D01*
Y21014D01*
Y21104D01*
Y21194D01*
Y21285D01*
X273384D01*
Y21375D01*
Y21465D01*
Y21555D01*
X273475D01*
Y21646D01*
Y21736D01*
Y21826D01*
X273565D01*
Y21916D01*
Y22007D01*
Y22097D01*
X273655D01*
Y22187D01*
Y22277D01*
Y22367D01*
X273745D01*
Y22458D01*
Y22548D01*
Y22638D01*
Y22728D01*
X273836D01*
Y22819D01*
Y22909D01*
Y22999D01*
X273926D01*
Y23089D01*
Y23179D01*
Y23270D01*
X274016D01*
Y23360D01*
Y23450D01*
Y23540D01*
X274106D01*
Y23631D01*
Y23721D01*
Y23811D01*
X274197D01*
Y23901D01*
Y23992D01*
Y24082D01*
X274287D01*
Y24172D01*
Y24262D01*
Y24352D01*
X274377D01*
Y24443D01*
Y24533D01*
Y24623D01*
Y24713D01*
X274467D01*
Y24804D01*
Y24894D01*
Y24984D01*
Y25074D01*
X274557D01*
Y25165D01*
Y25255D01*
Y25345D01*
X274648D01*
Y25255D01*
D02*
G37*
G36*
X251008Y24894D02*
Y24804D01*
X251098D01*
Y24713D01*
Y24623D01*
Y24533D01*
X251188D01*
Y24443D01*
Y24352D01*
Y24262D01*
X251278D01*
Y24172D01*
Y24082D01*
Y23992D01*
X251369D01*
Y23901D01*
Y23811D01*
Y23721D01*
X251459D01*
Y23631D01*
Y23540D01*
X251549D01*
Y23450D01*
Y23360D01*
Y23270D01*
X251639D01*
Y23179D01*
Y23089D01*
X251730D01*
Y22999D01*
Y22909D01*
Y22819D01*
X251820D01*
Y22728D01*
Y22638D01*
X251910D01*
Y22548D01*
Y22458D01*
Y22367D01*
X252000D01*
Y22277D01*
Y22187D01*
X252091D01*
Y22097D01*
Y22007D01*
Y21916D01*
X252181D01*
Y21826D01*
Y21736D01*
X252271D01*
Y21646D01*
Y21555D01*
Y21465D01*
X252361D01*
Y21375D01*
Y21285D01*
X252451D01*
Y21194D01*
Y21104D01*
Y21014D01*
X252542D01*
Y20924D01*
Y20834D01*
X252632D01*
Y20743D01*
Y20653D01*
X252722D01*
Y20563D01*
Y20473D01*
Y20382D01*
X252812D01*
Y20292D01*
Y20202D01*
Y20112D01*
X252903D01*
Y20021D01*
Y19931D01*
X252993D01*
Y19841D01*
Y19751D01*
X253083D01*
Y19661D01*
Y19570D01*
Y19480D01*
X253173D01*
Y19390D01*
Y19300D01*
X253263D01*
Y19209D01*
Y19119D01*
Y19029D01*
X253354D01*
Y18939D01*
Y18849D01*
X253444D01*
Y18758D01*
Y18668D01*
Y18578D01*
X253534D01*
Y18488D01*
Y18397D01*
X253624D01*
Y18307D01*
Y18217D01*
Y18127D01*
X253715D01*
Y18036D01*
Y17946D01*
X253805D01*
Y17856D01*
Y17766D01*
Y17676D01*
X253895D01*
Y17585D01*
Y17495D01*
X253985D01*
Y17405D01*
Y17315D01*
Y17224D01*
X254076D01*
Y17134D01*
Y17044D01*
X254166D01*
Y16954D01*
Y16864D01*
Y16773D01*
X254256D01*
Y16683D01*
Y16593D01*
X254346D01*
Y16503D01*
Y16412D01*
Y16322D01*
X254436D01*
Y16232D01*
Y16142D01*
X254527D01*
Y16051D01*
Y15961D01*
Y15871D01*
X254617D01*
Y15781D01*
Y15691D01*
X254707D01*
Y15600D01*
Y15510D01*
Y15420D01*
X254797D01*
Y15330D01*
Y15239D01*
X254888D01*
Y15149D01*
Y15059D01*
X254978D01*
Y14969D01*
Y14878D01*
Y14788D01*
X255068D01*
Y14698D01*
Y14608D01*
X255158D01*
Y14518D01*
Y14427D01*
X255248D01*
Y14337D01*
Y14247D01*
X255339D01*
Y14157D01*
Y14066D01*
X255429D01*
Y13976D01*
Y13886D01*
X255519D01*
Y13796D01*
Y13706D01*
X255609D01*
Y13615D01*
Y13525D01*
X255700D01*
Y13435D01*
Y13345D01*
X255790D01*
Y13254D01*
X255880D01*
Y13164D01*
Y13074D01*
X255970D01*
Y12984D01*
X256061D01*
Y12893D01*
Y12803D01*
X256151D01*
Y12713D01*
X256241D01*
Y12623D01*
X256331D01*
Y12533D01*
X256421D01*
Y12442D01*
Y12352D01*
X256512D01*
Y12262D01*
X256602D01*
Y12172D01*
X256512D01*
Y12082D01*
X256331D01*
Y11991D01*
X256061D01*
Y11901D01*
X255880D01*
Y11811D01*
X255609D01*
Y11721D01*
X255429D01*
Y11630D01*
X255158D01*
Y11540D01*
X254888D01*
Y11450D01*
X254707D01*
Y11360D01*
X254346D01*
Y11269D01*
X254076D01*
Y11179D01*
X253715D01*
Y11089D01*
X253263D01*
Y10999D01*
X252000D01*
Y11089D01*
X251730D01*
Y11179D01*
X251549D01*
Y11269D01*
X251369D01*
Y11360D01*
X251278D01*
Y11450D01*
X251098D01*
Y11540D01*
X251008D01*
Y11630D01*
X250918D01*
Y11721D01*
X250827D01*
Y11811D01*
X250737D01*
Y11901D01*
X250647D01*
Y11991D01*
X250557D01*
Y12082D01*
X250466D01*
Y12172D01*
X250376D01*
Y12262D01*
X250286D01*
Y12352D01*
X250196D01*
Y12442D01*
X250106D01*
Y12533D01*
Y12623D01*
X250015D01*
Y12713D01*
X249925D01*
Y12803D01*
X249835D01*
Y12893D01*
X249745D01*
Y12984D01*
Y13074D01*
X249654D01*
Y13164D01*
X249564D01*
Y13254D01*
X249474D01*
Y13345D01*
Y13435D01*
X249384D01*
Y13525D01*
Y13615D01*
X249293D01*
Y13706D01*
Y13796D01*
X249203D01*
Y13886D01*
Y13976D01*
X249113D01*
Y14066D01*
X249023D01*
Y14157D01*
Y14247D01*
X248933D01*
Y14337D01*
Y14427D01*
X248842D01*
Y14518D01*
Y14608D01*
X248752D01*
Y14698D01*
Y14788D01*
X248662D01*
Y14878D01*
X248572D01*
Y14969D01*
Y15059D01*
X248481D01*
Y15149D01*
Y15239D01*
X248391D01*
Y15330D01*
Y15420D01*
X248301D01*
Y15510D01*
Y15600D01*
X248211D01*
Y15691D01*
Y15781D01*
X248120D01*
Y15871D01*
Y15961D01*
X248030D01*
Y16051D01*
X247940D01*
Y16142D01*
Y16232D01*
X247850D01*
Y16322D01*
Y16412D01*
X247760D01*
Y16503D01*
Y16593D01*
X247669D01*
Y16683D01*
Y16773D01*
X247579D01*
Y16864D01*
X247489D01*
Y16954D01*
Y17044D01*
X247399D01*
Y17134D01*
Y17224D01*
X247308D01*
Y17315D01*
Y17405D01*
X247218D01*
Y17495D01*
Y17585D01*
X247128D01*
Y17676D01*
X247038D01*
Y17766D01*
Y17856D01*
X246948D01*
Y17946D01*
Y18036D01*
X246857D01*
Y18127D01*
Y18217D01*
X246767D01*
Y18307D01*
Y18397D01*
X246677D01*
Y18488D01*
Y18578D01*
X246587D01*
Y18668D01*
Y18758D01*
X246496D01*
Y18849D01*
X246406D01*
Y18939D01*
Y19029D01*
X246316D01*
Y19119D01*
Y19209D01*
X246226D01*
Y19300D01*
Y19390D01*
X246135D01*
Y19480D01*
Y19570D01*
X246045D01*
Y19661D01*
X245955D01*
Y19751D01*
Y19841D01*
X245865D01*
Y19931D01*
Y20021D01*
X245775D01*
Y20112D01*
Y20202D01*
X245684D01*
Y20292D01*
Y20382D01*
X245594D01*
Y20473D01*
Y20563D01*
X245504D01*
Y20653D01*
Y20743D01*
Y20834D01*
X245414D01*
Y20924D01*
Y21014D01*
X245323D01*
Y21104D01*
Y21194D01*
Y21285D01*
Y21375D01*
Y21465D01*
Y21555D01*
Y21646D01*
Y21736D01*
X245414D01*
Y21826D01*
Y21916D01*
X245504D01*
Y22007D01*
Y22097D01*
X245594D01*
Y22187D01*
X245684D01*
Y22277D01*
X245775D01*
Y22367D01*
X245865D01*
Y22458D01*
X245955D01*
Y22548D01*
X246045D01*
Y22638D01*
X246226D01*
Y22728D01*
X246316D01*
Y22819D01*
X246496D01*
Y22909D01*
X246587D01*
Y22999D01*
X246767D01*
Y23089D01*
X246948D01*
Y23179D01*
X247038D01*
Y23270D01*
X247218D01*
Y23360D01*
X247399D01*
Y23450D01*
X247579D01*
Y23540D01*
X247760D01*
Y23631D01*
X247850D01*
Y23721D01*
X248120D01*
Y23811D01*
X248301D01*
Y23901D01*
X248481D01*
Y23992D01*
X248662D01*
Y24082D01*
X248842D01*
Y24172D01*
X249113D01*
Y24262D01*
X249203D01*
Y24352D01*
X249474D01*
Y24443D01*
X249654D01*
Y24533D01*
X249925D01*
Y24623D01*
X250106D01*
Y24713D01*
X250286D01*
Y24804D01*
X250557D01*
Y24894D01*
X250737D01*
Y24984D01*
X251008D01*
Y24894D01*
D02*
G37*
G36*
X281054Y17946D02*
X281144D01*
Y17856D01*
X281325D01*
Y17766D01*
X281415D01*
Y17676D01*
X281505D01*
Y17585D01*
X281595D01*
Y17495D01*
X281685D01*
Y17405D01*
X281776D01*
Y17315D01*
X281866D01*
Y17224D01*
X281956D01*
Y17134D01*
X282046D01*
Y17044D01*
Y16954D01*
X282137D01*
Y16864D01*
X282227D01*
Y16773D01*
X282317D01*
Y16683D01*
X282407D01*
Y16593D01*
Y16503D01*
X282498D01*
Y16412D01*
X282588D01*
Y16322D01*
Y16232D01*
X282678D01*
Y16142D01*
X282768D01*
Y16051D01*
Y15961D01*
X282858D01*
Y15871D01*
Y15781D01*
X282949D01*
Y15691D01*
X283039D01*
Y15600D01*
Y15510D01*
X283129D01*
Y15420D01*
Y15330D01*
X283219D01*
Y15239D01*
Y15149D01*
X283310D01*
Y15059D01*
Y14969D01*
Y14878D01*
X283400D01*
Y14788D01*
Y14698D01*
X283490D01*
Y14608D01*
Y14518D01*
Y14427D01*
X283580D01*
Y14337D01*
Y14247D01*
Y14157D01*
X283670D01*
Y14066D01*
Y13976D01*
Y13886D01*
Y13796D01*
X283761D01*
Y13706D01*
Y13615D01*
Y13525D01*
Y13435D01*
X283851D01*
Y13345D01*
Y13254D01*
Y13164D01*
Y13074D01*
Y12984D01*
X283941D01*
Y12893D01*
Y12803D01*
Y12713D01*
Y12623D01*
Y12533D01*
Y12442D01*
Y12352D01*
Y12262D01*
Y12172D01*
X284031D01*
Y12082D01*
Y11991D01*
Y11901D01*
Y11811D01*
Y11721D01*
Y11630D01*
Y11540D01*
Y11450D01*
Y11360D01*
Y11269D01*
X283941D01*
Y11179D01*
Y11089D01*
Y10999D01*
Y10909D01*
Y10818D01*
Y10728D01*
Y10638D01*
Y10548D01*
X283851D01*
Y10457D01*
Y10367D01*
Y10277D01*
X283219D01*
Y10367D01*
X282949D01*
Y10457D01*
X282678D01*
Y10548D01*
X282407D01*
Y10638D01*
X282227D01*
Y10728D01*
X281956D01*
Y10818D01*
X281776D01*
Y10909D01*
X281505D01*
Y10999D01*
X281325D01*
Y11089D01*
X281054D01*
Y11179D01*
X280873D01*
Y11269D01*
X280693D01*
Y11360D01*
X280422D01*
Y11450D01*
X280242D01*
Y11540D01*
X280061D01*
Y11630D01*
X279791D01*
Y11721D01*
X279610D01*
Y11811D01*
X279340D01*
Y11901D01*
X279159D01*
Y11991D01*
X278888D01*
Y12082D01*
X278708D01*
Y12172D01*
X278527D01*
Y12262D01*
X278257D01*
Y12352D01*
X278076D01*
Y12442D01*
X277806D01*
Y12533D01*
X277715D01*
Y12623D01*
Y12713D01*
X277806D01*
Y12803D01*
X277896D01*
Y12893D01*
Y12984D01*
X277986D01*
Y13074D01*
X278076D01*
Y13164D01*
Y13254D01*
X278167D01*
Y13345D01*
X278257D01*
Y13435D01*
Y13525D01*
X278347D01*
Y13615D01*
X278437D01*
Y13706D01*
Y13796D01*
X278527D01*
Y13886D01*
Y13976D01*
X278618D01*
Y14066D01*
X278708D01*
Y14157D01*
Y14247D01*
X278798D01*
Y14337D01*
X278888D01*
Y14427D01*
Y14518D01*
X278978D01*
Y14608D01*
Y14698D01*
X279069D01*
Y14788D01*
X279159D01*
Y14878D01*
Y14969D01*
X279249D01*
Y15059D01*
X279340D01*
Y15149D01*
Y15239D01*
X279430D01*
Y15330D01*
Y15420D01*
X279520D01*
Y15510D01*
X279610D01*
Y15600D01*
Y15691D01*
X279700D01*
Y15781D01*
Y15871D01*
X279791D01*
Y15961D01*
X279881D01*
Y16051D01*
Y16142D01*
X279971D01*
Y16232D01*
Y16322D01*
X280061D01*
Y16412D01*
X280152D01*
Y16503D01*
Y16593D01*
X280242D01*
Y16683D01*
Y16773D01*
X280332D01*
Y16864D01*
X280422D01*
Y16954D01*
Y17044D01*
X280512D01*
Y17134D01*
X280603D01*
Y17224D01*
Y17315D01*
X280693D01*
Y17405D01*
Y17495D01*
X280783D01*
Y17585D01*
Y17676D01*
X280873D01*
Y17766D01*
Y17856D01*
X280964D01*
Y17946D01*
Y18036D01*
X281054D01*
Y17946D01*
D02*
G37*
G36*
X244872Y17766D02*
Y17676D01*
X244963D01*
Y17585D01*
Y17495D01*
X245053D01*
Y17405D01*
X245143D01*
Y17315D01*
Y17224D01*
X245233D01*
Y17134D01*
Y17044D01*
X245323D01*
Y16954D01*
Y16864D01*
X245414D01*
Y16773D01*
Y16683D01*
X245504D01*
Y16593D01*
Y16503D01*
X245594D01*
Y16412D01*
X245684D01*
Y16322D01*
Y16232D01*
X245775D01*
Y16142D01*
Y16051D01*
X245865D01*
Y15961D01*
Y15871D01*
X245955D01*
Y15781D01*
Y15691D01*
X246045D01*
Y15600D01*
X246135D01*
Y15510D01*
Y15420D01*
X246226D01*
Y15330D01*
Y15239D01*
X246316D01*
Y15149D01*
Y15059D01*
X246406D01*
Y14969D01*
Y14878D01*
X246496D01*
Y14788D01*
Y14698D01*
X246587D01*
Y14608D01*
X246677D01*
Y14518D01*
Y14427D01*
X246767D01*
Y14337D01*
Y14247D01*
X246857D01*
Y14157D01*
Y14066D01*
X246948D01*
Y13976D01*
Y13886D01*
X247038D01*
Y13796D01*
Y13706D01*
X247128D01*
Y13615D01*
X247218D01*
Y13525D01*
Y13435D01*
X247308D01*
Y13345D01*
Y13254D01*
X247399D01*
Y13164D01*
Y13074D01*
X247489D01*
Y12984D01*
Y12893D01*
X247579D01*
Y12803D01*
X247669D01*
Y12713D01*
Y12623D01*
X247760D01*
Y12533D01*
Y12442D01*
X247850D01*
Y12352D01*
Y12262D01*
X247940D01*
Y12172D01*
X247760D01*
Y12082D01*
X247579D01*
Y11991D01*
X247308D01*
Y11901D01*
X247128D01*
Y11811D01*
X246948D01*
Y11721D01*
X246677D01*
Y11630D01*
X246496D01*
Y11540D01*
X246226D01*
Y11450D01*
X246045D01*
Y11360D01*
X245865D01*
Y11269D01*
X245594D01*
Y11179D01*
X245414D01*
Y11089D01*
X245233D01*
Y10999D01*
X244963D01*
Y10909D01*
X244782D01*
Y10818D01*
X244602D01*
Y10728D01*
X244331D01*
Y10638D01*
X244150D01*
Y10548D01*
X243880D01*
Y10457D01*
X243699D01*
Y10367D01*
X243429D01*
Y10277D01*
X243158D01*
Y10187D01*
X242887D01*
Y10096D01*
X242526D01*
Y10006D01*
X242256D01*
Y10096D01*
Y10187D01*
X242165D01*
Y10277D01*
Y10367D01*
Y10457D01*
X242075D01*
Y10548D01*
Y10638D01*
Y10728D01*
Y10818D01*
Y10909D01*
Y10999D01*
Y11089D01*
X241985D01*
Y11179D01*
Y11269D01*
Y11360D01*
Y11450D01*
Y11540D01*
Y11630D01*
Y11721D01*
Y11811D01*
Y11901D01*
Y11991D01*
Y12082D01*
Y12172D01*
Y12262D01*
Y12352D01*
X242075D01*
Y12442D01*
Y12533D01*
Y12623D01*
Y12713D01*
Y12803D01*
Y12893D01*
Y12984D01*
Y13074D01*
Y13164D01*
X242165D01*
Y13254D01*
Y13345D01*
Y13435D01*
Y13525D01*
X242256D01*
Y13615D01*
Y13706D01*
Y13796D01*
Y13886D01*
Y13976D01*
X242346D01*
Y14066D01*
Y14157D01*
Y14247D01*
X242436D01*
Y14337D01*
Y14427D01*
Y14518D01*
X242526D01*
Y14608D01*
Y14698D01*
Y14788D01*
X242617D01*
Y14878D01*
Y14969D01*
X242707D01*
Y15059D01*
Y15149D01*
X242797D01*
Y15239D01*
Y15330D01*
X242887D01*
Y15420D01*
Y15510D01*
X242977D01*
Y15600D01*
Y15691D01*
X243068D01*
Y15781D01*
Y15871D01*
X243158D01*
Y15961D01*
Y16051D01*
X243248D01*
Y16142D01*
X243338D01*
Y16232D01*
Y16322D01*
X243429D01*
Y16412D01*
X243519D01*
Y16503D01*
X243609D01*
Y16593D01*
Y16683D01*
X243699D01*
Y16773D01*
X243790D01*
Y16864D01*
X243880D01*
Y16954D01*
X243970D01*
Y17044D01*
X244060D01*
Y17134D01*
Y17224D01*
X244150D01*
Y17315D01*
X244241D01*
Y17405D01*
X244331D01*
Y17495D01*
X244511D01*
Y17585D01*
Y17676D01*
X244692D01*
Y17766D01*
X244782D01*
Y17856D01*
X244872D01*
Y17766D01*
D02*
G37*
D18*
X172685Y88976D02*
D03*
X183317Y88975D02*
D03*
D19*
X169587Y88976D02*
D03*
X180219Y88975D02*
D03*
D36*
X171653Y92913D02*
D03*
Y96850D02*
D03*
X182286Y92912D02*
D03*
Y96849D02*
D03*
D37*
X171653Y90945D02*
D03*
Y94882D02*
D03*
X182286Y90944D02*
D03*
Y94881D02*
D03*
D38*
X247638Y111024D02*
D03*
X271260D02*
D03*
D39*
X196850Y177165D02*
D03*
Y202894D02*
D03*
D40*
X90158Y127657D02*
D03*
Y108563D02*
D03*
X303543Y127657D02*
D03*
Y108563D02*
D03*
D41*
X87795Y50984D02*
D03*
X101181D02*
D03*
X220276Y44882D02*
D03*
X213583D02*
D03*
X152953Y58268D02*
D03*
X146260D02*
D03*
X213583Y51402D02*
D03*
X220276D02*
D03*
X150591Y66535D02*
D03*
X157283D02*
D03*
Y72441D02*
D03*
X150591D02*
D03*
X193504Y57480D02*
D03*
X186811D02*
D03*
X186752Y51402D02*
D03*
X193445D02*
D03*
X186811Y63386D02*
D03*
X193504D02*
D03*
X165354Y80709D02*
D03*
X172047D02*
D03*
X206890Y51402D02*
D03*
X200197D02*
D03*
X152953Y52362D02*
D03*
X146260D02*
D03*
X193504Y44882D02*
D03*
X186811D02*
D03*
X193504Y38583D02*
D03*
X186811D02*
D03*
X146260Y40551D02*
D03*
X152953D02*
D03*
X146260Y46457D02*
D03*
X152953D02*
D03*
X193504Y32283D02*
D03*
X186811D02*
D03*
X200197D02*
D03*
X206890D02*
D03*
D42*
X94488Y44291D02*
D03*
Y57677D02*
D03*
X80709Y50984D02*
D03*
Y57677D02*
D03*
X134646Y50984D02*
D03*
Y57677D02*
D03*
Y44685D02*
D03*
Y37992D02*
D03*
X350787Y114764D02*
D03*
Y121457D02*
D03*
X358661Y114764D02*
D03*
Y121457D02*
D03*
X42913Y114764D02*
D03*
Y121457D02*
D03*
X35039Y114764D02*
D03*
Y121457D02*
D03*
D43*
X94488Y50984D02*
D03*
D44*
X146555Y80709D02*
D03*
D45*
X155905D02*
D03*
D46*
X168307Y52362D02*
D03*
D47*
X160827Y49409D02*
D03*
Y51378D02*
D03*
Y53347D02*
D03*
Y55315D02*
D03*
X175787D02*
D03*
Y53347D02*
D03*
Y51378D02*
D03*
Y49409D02*
D03*
D48*
X163386Y57874D02*
D03*
X165354D02*
D03*
X167323D02*
D03*
X169291D02*
D03*
X171260D02*
D03*
X173228D02*
D03*
Y46850D02*
D03*
X171260D02*
D03*
X169291D02*
D03*
X167323D02*
D03*
X165354D02*
D03*
X163386D02*
D03*
D49*
X216339Y116142D02*
D03*
D50*
X177362D02*
D03*
D51*
X149606Y15748D02*
D03*
X173228D02*
D03*
D52*
X145079Y31496D02*
D03*
X154134D02*
D03*
X168701D02*
D03*
X177756D02*
D03*
D53*
X338976Y124803D02*
D03*
Y111417D02*
D03*
X325197Y124803D02*
D03*
Y111417D02*
D03*
X68504Y124803D02*
D03*
Y111417D02*
D03*
X54724Y124803D02*
D03*
Y111417D02*
D03*
D54*
X186614Y72047D02*
D03*
X108661Y50984D02*
D03*
X133071Y16535D02*
D03*
X334646Y155630D02*
D03*
X125591Y110630D02*
D03*
X334646Y80575D02*
D03*
X59055Y80590D02*
D03*
D55*
X366094Y198819D02*
D03*
X307039D02*
D03*
X27512D02*
D03*
X86567D02*
D03*
D56*
X366094Y218504D02*
D03*
X307039D02*
D03*
X27512D02*
D03*
X86567D02*
D03*
D57*
X366142Y155630D02*
D03*
X27559D02*
D03*
X366142Y80590D02*
D03*
X27559D02*
D03*
M02*
