G04*
G04 #@! TF.GenerationSoftware,Altium Limited,Altium Designer,21.3.2 (30)*
G04*
G04 Layer_Physical_Order=2*
G04 Layer_Color=16711680*
%FSLAX25Y25*%
%MOIN*%
G70*
G04*
G04 #@! TF.SameCoordinates,26355F08-9206-417B-94F2-C20795E45030*
G04*
G04*
G04 #@! TF.FilePolarity,Positive*
G04*
G01*
G75*
%ADD10C,0.01000*%
%ADD62C,0.04000*%
%ADD64C,0.05906*%
%ADD65R,0.08268X0.08268*%
%ADD66C,0.08268*%
%ADD67C,0.39370*%
%ADD68C,0.02756*%
%ADD69R,0.07874X0.14961*%
G36*
X393701Y119685D02*
X392126Y118110D01*
X290551D01*
X259842Y118110D01*
Y138986D01*
X271153D01*
Y133555D01*
X280028D01*
Y149516D01*
X271153D01*
Y144084D01*
X259842D01*
Y209695D01*
X393701D01*
Y119685D01*
D02*
G37*
G36*
X163088Y118110D02*
X120659D01*
Y133555D01*
X122547D01*
Y149516D01*
X113673D01*
Y133555D01*
X115561D01*
Y118110D01*
X77352D01*
Y133555D01*
X79240D01*
Y149516D01*
X70366D01*
Y133555D01*
X72254D01*
Y118110D01*
X1181D01*
X0Y119291D01*
Y209695D01*
X163088D01*
Y118110D01*
D02*
G37*
G36*
X386618Y235836D02*
X388438Y235082D01*
X390075Y233988D01*
X391468Y232595D01*
X392563Y230957D01*
X393317Y229137D01*
X393701Y227205D01*
Y226220D01*
Y210236D01*
X259842D01*
X259460Y210078D01*
X259301Y209695D01*
Y144084D01*
X259460Y143702D01*
X259842Y143543D01*
X271153D01*
X271536Y143702D01*
X271695Y144084D01*
Y148975D01*
X279486D01*
Y134096D01*
X271695D01*
Y138986D01*
X271536Y139369D01*
X271153Y139528D01*
X259842D01*
X259460Y139369D01*
X259301Y138986D01*
Y118110D01*
X259460Y117727D01*
X259842Y117569D01*
X290551Y117569D01*
X392126D01*
X392126Y117569D01*
X392509Y117727D01*
X393239Y118458D01*
X393701Y118266D01*
Y10000D01*
Y9015D01*
X393317Y7083D01*
X392563Y5263D01*
X391468Y3625D01*
X390075Y2232D01*
X388438Y1138D01*
X386618Y384D01*
X384686Y0D01*
X9015D01*
X7083Y384D01*
X5263Y1138D01*
X3625Y2232D01*
X2232Y3625D01*
X1138Y5263D01*
X384Y7083D01*
X0Y9015D01*
Y10000D01*
Y117873D01*
X462Y118064D01*
X798Y117727D01*
X1181Y117569D01*
X1181Y117569D01*
X72254D01*
X72637Y117727D01*
X72795Y118110D01*
Y133555D01*
X72637Y133938D01*
X72254Y134096D01*
X70907D01*
Y148975D01*
X78699D01*
Y134096D01*
X77352D01*
X76969Y133938D01*
X76811Y133555D01*
Y118110D01*
X76969Y117727D01*
X77352Y117569D01*
X115561D01*
X115944Y117727D01*
X116103Y118110D01*
Y133555D01*
X115944Y133938D01*
X115561Y134096D01*
X114214D01*
Y148975D01*
X122006D01*
Y134096D01*
X120659D01*
X120276Y133938D01*
X120118Y133555D01*
Y118110D01*
X120276Y117727D01*
X120659Y117569D01*
X163088D01*
X163471Y117727D01*
X163629Y118110D01*
Y209695D01*
X163471Y210078D01*
X163088Y210236D01*
X0D01*
Y226220D01*
Y227205D01*
X384Y229137D01*
X1138Y230957D01*
X2232Y232595D01*
X3625Y233988D01*
X5263Y235082D01*
X7083Y235836D01*
X9015Y236221D01*
X384686D01*
X386618Y235836D01*
D02*
G37*
%LPC*%
G36*
X312173Y203953D02*
X307789D01*
Y199569D01*
X312173D01*
Y203953D01*
D02*
G37*
G36*
X371228D02*
X366845D01*
Y199569D01*
X371228D01*
Y203953D01*
D02*
G37*
G36*
X365345D02*
X360961D01*
Y199569D01*
X365345D01*
Y203953D01*
D02*
G37*
G36*
X306289D02*
X301905D01*
Y199569D01*
X306289D01*
Y203953D01*
D02*
G37*
G36*
X371228Y198069D02*
X366845D01*
Y193685D01*
X371228D01*
Y198069D01*
D02*
G37*
G36*
X365345D02*
X360961D01*
Y193685D01*
X365345D01*
Y198069D01*
D02*
G37*
G36*
X312173D02*
X307789D01*
Y193685D01*
X312173D01*
Y198069D01*
D02*
G37*
G36*
X306289D02*
X301905D01*
Y193685D01*
X306289D01*
Y198069D01*
D02*
G37*
G36*
X335396Y159521D02*
Y156380D01*
X338537D01*
X338329Y157156D01*
X337809Y158057D01*
X337073Y158793D01*
X336171Y159313D01*
X335396Y159521D01*
D02*
G37*
G36*
X367497Y176315D02*
X366892D01*
Y156380D01*
X386827D01*
Y156986D01*
X386473Y159674D01*
X385771Y162293D01*
X384733Y164798D01*
X383378Y167147D01*
X381727Y169298D01*
X379810Y171215D01*
X377658Y172866D01*
X375310Y174222D01*
X372805Y175259D01*
X370186Y175961D01*
X367497Y176315D01*
D02*
G37*
G36*
X333896Y159521D02*
X333120Y159313D01*
X332219Y158793D01*
X331483Y158057D01*
X330962Y157156D01*
X330754Y156380D01*
X333896D01*
Y159521D01*
D02*
G37*
G36*
X365392Y176315D02*
X364786D01*
X362098Y175961D01*
X359478Y175259D01*
X356973Y174222D01*
X354625Y172866D01*
X352474Y171215D01*
X350556Y169298D01*
X348906Y167147D01*
X347550Y164798D01*
X346512Y162293D01*
X345811Y159674D01*
X345457Y156986D01*
Y156380D01*
X365392D01*
Y176315D01*
D02*
G37*
G36*
X338537Y154880D02*
X335396D01*
Y151739D01*
X336171Y151946D01*
X337073Y152467D01*
X337809Y153203D01*
X338329Y154104D01*
X338537Y154880D01*
D02*
G37*
G36*
X333896D02*
X330754D01*
X330962Y154104D01*
X331483Y153203D01*
X332219Y152467D01*
X333120Y151946D01*
X333896Y151739D01*
Y154880D01*
D02*
G37*
G36*
X386827D02*
X366892D01*
Y134945D01*
X367497D01*
X370186Y135299D01*
X372805Y136001D01*
X375310Y137038D01*
X377658Y138394D01*
X379810Y140045D01*
X381727Y141962D01*
X383378Y144113D01*
X384733Y146461D01*
X385771Y148967D01*
X386473Y151586D01*
X386827Y154274D01*
Y154880D01*
D02*
G37*
G36*
X365392D02*
X345457D01*
Y154274D01*
X345811Y151586D01*
X346512Y148967D01*
X347550Y146461D01*
X348906Y144113D01*
X350556Y141962D01*
X352474Y140045D01*
X354625Y138394D01*
X356973Y137038D01*
X359478Y136001D01*
X362098Y135299D01*
X364786Y134945D01*
X365392D01*
Y154880D01*
D02*
G37*
G36*
X32646Y203953D02*
X28262D01*
Y199569D01*
X32646D01*
Y203953D01*
D02*
G37*
G36*
X91701D02*
X87317D01*
Y199569D01*
X91701D01*
Y203953D01*
D02*
G37*
G36*
X85817D02*
X81433D01*
Y199569D01*
X85817D01*
Y203953D01*
D02*
G37*
G36*
X26762D02*
X22378D01*
Y199569D01*
X26762D01*
Y203953D01*
D02*
G37*
G36*
X91701Y198069D02*
X87317D01*
Y193685D01*
X91701D01*
Y198069D01*
D02*
G37*
G36*
X85817D02*
X81433D01*
Y193685D01*
X85817D01*
Y198069D01*
D02*
G37*
G36*
X32646D02*
X28262D01*
Y193685D01*
X32646D01*
Y198069D01*
D02*
G37*
G36*
X26762D02*
X22378D01*
Y193685D01*
X26762D01*
Y198069D01*
D02*
G37*
G36*
X28915Y176315D02*
X28309D01*
Y156380D01*
X48244D01*
Y156986D01*
X47890Y159674D01*
X47188Y162293D01*
X46151Y164798D01*
X44795Y167147D01*
X43144Y169298D01*
X41227Y171215D01*
X39076Y172866D01*
X36727Y174222D01*
X34222Y175259D01*
X31603Y175961D01*
X28915Y176315D01*
D02*
G37*
G36*
X26809D02*
X26203D01*
X23515Y175961D01*
X20896Y175259D01*
X18391Y174222D01*
X16042Y172866D01*
X13891Y171215D01*
X11974Y169298D01*
X10323Y167147D01*
X8967Y164798D01*
X7930Y162293D01*
X7228Y159674D01*
X6874Y156986D01*
Y156380D01*
X26809D01*
Y176315D01*
D02*
G37*
G36*
X48244Y154880D02*
X28309D01*
Y134945D01*
X28915D01*
X31603Y135299D01*
X34222Y136001D01*
X36727Y137038D01*
X39076Y138394D01*
X41227Y140045D01*
X43144Y141962D01*
X44795Y144113D01*
X46151Y146461D01*
X47188Y148967D01*
X47890Y151586D01*
X48244Y154274D01*
Y154880D01*
D02*
G37*
G36*
X26809D02*
X6874D01*
Y154274D01*
X7228Y151586D01*
X7930Y148967D01*
X8967Y146461D01*
X10323Y144113D01*
X11974Y141962D01*
X13891Y140045D01*
X16042Y138394D01*
X18391Y137038D01*
X20896Y136001D01*
X23515Y135299D01*
X26203Y134945D01*
X26809D01*
Y154880D01*
D02*
G37*
G36*
X87317Y223618D02*
Y219254D01*
X91681D01*
X91351Y220485D01*
X90675Y221656D01*
X89719Y222612D01*
X88548Y223288D01*
X87317Y223618D01*
D02*
G37*
G36*
X28262D02*
Y219254D01*
X32626D01*
X32296Y220485D01*
X31620Y221656D01*
X30664Y222612D01*
X29493Y223288D01*
X28262Y223618D01*
D02*
G37*
G36*
X26762D02*
X25530Y223288D01*
X24360Y222612D01*
X23404Y221656D01*
X22728Y220485D01*
X22398Y219254D01*
X26762D01*
Y223618D01*
D02*
G37*
G36*
X85817D02*
X84585Y223288D01*
X83415Y222612D01*
X82459Y221656D01*
X81783Y220485D01*
X81453Y219254D01*
X85817D01*
Y223618D01*
D02*
G37*
G36*
X366845Y223618D02*
Y219254D01*
X371209D01*
X370879Y220485D01*
X370203Y221656D01*
X369247Y222612D01*
X368076Y223288D01*
X366845Y223618D01*
D02*
G37*
G36*
X307789D02*
Y219254D01*
X312153D01*
X311823Y220485D01*
X311147Y221656D01*
X310192Y222612D01*
X309021Y223288D01*
X307789Y223618D01*
D02*
G37*
G36*
X365345Y223618D02*
X364113Y223288D01*
X362942Y222612D01*
X361986Y221656D01*
X361311Y220485D01*
X360981Y219254D01*
X365345D01*
Y223618D01*
D02*
G37*
G36*
X306289D02*
X305058Y223288D01*
X303887Y222612D01*
X302931Y221656D01*
X302255Y220485D01*
X301925Y219254D01*
X306289D01*
Y223618D01*
D02*
G37*
G36*
X365345Y217754D02*
X360981D01*
X361311Y216522D01*
X361986Y215352D01*
X362942Y214396D01*
X364113Y213720D01*
X365345Y213390D01*
Y217754D01*
D02*
G37*
G36*
X306289D02*
X301925D01*
X302255Y216522D01*
X302931Y215352D01*
X303887Y214396D01*
X305058Y213720D01*
X306289Y213390D01*
Y217754D01*
D02*
G37*
G36*
X91681Y217754D02*
X87317D01*
Y213390D01*
X88548Y213720D01*
X89719Y214396D01*
X90675Y215352D01*
X91351Y216522D01*
X91681Y217754D01*
D02*
G37*
G36*
X32626D02*
X28262D01*
Y213390D01*
X29493Y213720D01*
X30664Y214396D01*
X31620Y215352D01*
X32296Y216522D01*
X32626Y217754D01*
D02*
G37*
G36*
X26762D02*
X22398D01*
X22728Y216522D01*
X23404Y215352D01*
X24360Y214396D01*
X25530Y213720D01*
X26762Y213390D01*
Y217754D01*
D02*
G37*
G36*
X85817D02*
X81453D01*
X81783Y216522D01*
X82459Y215352D01*
X83415Y214396D01*
X84585Y213720D01*
X85817Y213390D01*
Y217754D01*
D02*
G37*
G36*
X371209Y217754D02*
X366845D01*
Y213390D01*
X368076Y213720D01*
X369247Y214396D01*
X370203Y215352D01*
X370879Y216522D01*
X371209Y217754D01*
D02*
G37*
G36*
X312153D02*
X307789D01*
Y213390D01*
X309021Y213720D01*
X310192Y214396D01*
X311147Y215352D01*
X311823Y216522D01*
X312153Y217754D01*
D02*
G37*
G36*
X126045Y114083D02*
X125136D01*
X124258Y113847D01*
X123470Y113393D01*
X122828Y112750D01*
X122373Y111963D01*
X122138Y111084D01*
Y110175D01*
X122373Y109297D01*
X122828Y108510D01*
X123470Y107867D01*
X124258Y107413D01*
X125136Y107177D01*
X126045D01*
X126923Y107413D01*
X127711Y107867D01*
X128353Y108510D01*
X128808Y109297D01*
X129043Y110175D01*
Y111084D01*
X128808Y111963D01*
X128353Y112750D01*
X127711Y113393D01*
X126923Y113847D01*
X126045Y114083D01*
D02*
G37*
G36*
X262537Y104403D02*
X261790D01*
X261100Y104118D01*
X260571Y103589D01*
X260285Y102899D01*
Y102152D01*
X260304Y102108D01*
X259795Y101599D01*
X259382Y101319D01*
X259118Y101584D01*
X258594Y102108D01*
X258612Y102152D01*
Y102899D01*
X258326Y103589D01*
X257798Y104118D01*
X257108Y104403D01*
X256361D01*
X255670Y104118D01*
X255142Y103589D01*
X254856Y102899D01*
Y102152D01*
X255142Y101462D01*
X255670Y100933D01*
X256361Y100647D01*
X257108D01*
X257152Y100666D01*
X257642Y100176D01*
Y63174D01*
X238007Y43539D01*
X201603D01*
X200678Y44464D01*
X200697Y44508D01*
Y45255D01*
X200411Y45946D01*
X199883Y46474D01*
X199193Y46760D01*
X198445D01*
X197755Y46474D01*
X197227Y45946D01*
X196941Y45255D01*
Y44508D01*
X197227Y43818D01*
X197755Y43290D01*
X198445Y43004D01*
X199193D01*
X199237Y43022D01*
X200180Y42079D01*
X200415Y41732D01*
X200180Y41386D01*
X199237Y40442D01*
X199193Y40461D01*
X198445D01*
X197755Y40175D01*
X197574Y39993D01*
X197162Y39713D01*
X194422Y42453D01*
X194091Y42674D01*
X193701Y42752D01*
X183500D01*
X183482Y42796D01*
X182954Y43324D01*
X182263Y43610D01*
X181516D01*
X180826Y43324D01*
X180298Y42796D01*
X180012Y42106D01*
Y41359D01*
X180298Y40668D01*
X180826Y40140D01*
X181516Y39854D01*
X182263D01*
X182954Y40140D01*
X183482Y40668D01*
X183500Y40713D01*
X193279D01*
X195421Y38570D01*
Y33609D01*
X195160Y33347D01*
X194874Y32657D01*
Y31910D01*
X195160Y31220D01*
X195688Y30691D01*
X196378Y30406D01*
X197125D01*
X197816Y30691D01*
X198344Y31220D01*
X198630Y31910D01*
Y32657D01*
X198344Y33347D01*
X197816Y33876D01*
X197460Y34023D01*
Y36632D01*
X197960Y36906D01*
X198445Y36705D01*
X199193D01*
X199883Y36991D01*
X200411Y37519D01*
X200697Y38209D01*
Y38956D01*
X200678Y39000D01*
X201603Y39925D01*
X238976D01*
X239367Y40003D01*
X239697Y40224D01*
X260882Y61409D01*
X261103Y61740D01*
X261181Y62130D01*
Y100101D01*
X261746Y100666D01*
X261790Y100647D01*
X262537D01*
X263227Y100933D01*
X263755Y101462D01*
X264041Y102152D01*
Y102899D01*
X263755Y103589D01*
X263227Y104118D01*
X262537Y104403D01*
D02*
G37*
G36*
X162187Y98336D02*
X161440D01*
X160749Y98050D01*
X160221Y97522D01*
X159935Y96832D01*
Y96084D01*
X160221Y95394D01*
X160749Y94866D01*
X161440Y94580D01*
X162187D01*
X162877Y94866D01*
X163405Y95394D01*
X163691Y96084D01*
Y96832D01*
X163405Y97522D01*
X162877Y98050D01*
X162187Y98336D01*
D02*
G37*
G36*
X157069D02*
X156322D01*
X155631Y98050D01*
X155103Y97522D01*
X154817Y96832D01*
Y96084D01*
X155103Y95394D01*
X155631Y94866D01*
X156322Y94580D01*
X157069D01*
X157759Y94866D01*
X158287Y95394D01*
X158573Y96084D01*
Y96832D01*
X158287Y97522D01*
X157759Y98050D01*
X157069Y98336D01*
D02*
G37*
G36*
X152344D02*
X151597D01*
X150907Y98050D01*
X150379Y97522D01*
X150093Y96832D01*
Y96084D01*
X150379Y95394D01*
X150907Y94866D01*
X151597Y94580D01*
X152344D01*
X153034Y94866D01*
X153563Y95394D01*
X153849Y96084D01*
Y96832D01*
X153563Y97522D01*
X153034Y98050D01*
X152344Y98336D01*
D02*
G37*
G36*
X162187Y91249D02*
X161440D01*
X160749Y90963D01*
X160221Y90435D01*
X159935Y89745D01*
Y88998D01*
X160221Y88308D01*
X160749Y87779D01*
X161440Y87493D01*
X162187D01*
X162877Y87779D01*
X163405Y88308D01*
X163691Y88998D01*
Y89745D01*
X163405Y90435D01*
X162877Y90963D01*
X162187Y91249D01*
D02*
G37*
G36*
X157069D02*
X156322D01*
X155631Y90963D01*
X155103Y90435D01*
X154817Y89745D01*
Y88998D01*
X155103Y88308D01*
X155631Y87779D01*
X156322Y87493D01*
X157069D01*
X157759Y87779D01*
X158287Y88308D01*
X158573Y88998D01*
Y89745D01*
X158287Y90435D01*
X157759Y90963D01*
X157069Y91249D01*
D02*
G37*
G36*
X152344D02*
X151597D01*
X150907Y90963D01*
X150379Y90435D01*
X150093Y89745D01*
Y88998D01*
X150379Y88308D01*
X150907Y87779D01*
X151597Y87493D01*
X152344D01*
X153034Y87779D01*
X153563Y88308D01*
X153849Y88998D01*
Y89745D01*
X153563Y90435D01*
X153034Y90963D01*
X152344Y91249D01*
D02*
G37*
G36*
X59805Y84482D02*
Y81340D01*
X62946D01*
X62739Y82116D01*
X62218Y83018D01*
X61482Y83754D01*
X60581Y84274D01*
X59805Y84482D01*
D02*
G37*
G36*
X28915Y101276D02*
X28309D01*
Y81340D01*
X48244D01*
Y81946D01*
X47890Y84635D01*
X47188Y87254D01*
X46151Y89759D01*
X44795Y92107D01*
X43144Y94258D01*
X41227Y96176D01*
X39076Y97826D01*
X36727Y99182D01*
X34222Y100220D01*
X31603Y100922D01*
X28915Y101276D01*
D02*
G37*
G36*
X367497D02*
X366892D01*
Y81340D01*
X386827D01*
Y81946D01*
X386473Y84635D01*
X385771Y87254D01*
X384733Y89759D01*
X383378Y92107D01*
X381727Y94258D01*
X379810Y96176D01*
X377658Y97826D01*
X375310Y99182D01*
X372805Y100220D01*
X370186Y100922D01*
X367497Y101276D01*
D02*
G37*
G36*
X58305Y84482D02*
X57529Y84274D01*
X56628Y83754D01*
X55892Y83018D01*
X55372Y82116D01*
X55164Y81340D01*
X58305D01*
Y84482D01*
D02*
G37*
G36*
X365392Y101276D02*
X364786D01*
X362098Y100922D01*
X359478Y100220D01*
X356973Y99182D01*
X354625Y97826D01*
X352474Y96176D01*
X350556Y94258D01*
X348906Y92107D01*
X347550Y89759D01*
X346512Y87254D01*
X345811Y84635D01*
X345457Y81946D01*
Y81340D01*
X365392D01*
Y101276D01*
D02*
G37*
G36*
X26809D02*
X26203D01*
X23515Y100922D01*
X20896Y100220D01*
X18391Y99182D01*
X16042Y97826D01*
X13891Y96176D01*
X11974Y94258D01*
X10323Y92107D01*
X8967Y89759D01*
X7930Y87254D01*
X7228Y84635D01*
X6874Y81946D01*
Y81340D01*
X26809D01*
Y101276D01*
D02*
G37*
G36*
X335396Y84466D02*
Y81325D01*
X338537D01*
X338329Y82100D01*
X337809Y83002D01*
X337073Y83738D01*
X336171Y84258D01*
X335396Y84466D01*
D02*
G37*
G36*
X333896Y84466D02*
X333120Y84258D01*
X332219Y83738D01*
X331483Y83002D01*
X330962Y82100D01*
X330754Y81325D01*
X333896D01*
Y84466D01*
D02*
G37*
G36*
X62946Y79840D02*
X59805D01*
Y76699D01*
X60581Y76907D01*
X61482Y77428D01*
X62218Y78163D01*
X62739Y79065D01*
X62946Y79840D01*
D02*
G37*
G36*
X58305D02*
X55164D01*
X55372Y79065D01*
X55892Y78163D01*
X56628Y77428D01*
X57529Y76907D01*
X58305Y76699D01*
Y79840D01*
D02*
G37*
G36*
X338537Y79825D02*
X335396D01*
Y76683D01*
X336171Y76891D01*
X337073Y77412D01*
X337809Y78148D01*
X338329Y79049D01*
X338537Y79825D01*
D02*
G37*
G36*
X333896D02*
X330754D01*
X330962Y79049D01*
X331483Y78148D01*
X332219Y77412D01*
X333120Y76891D01*
X333896Y76683D01*
Y79825D01*
D02*
G37*
G36*
X168877Y87705D02*
X168130D01*
X167440Y87419D01*
X166912Y86891D01*
X166626Y86200D01*
Y85453D01*
X166912Y84763D01*
X167440Y84235D01*
X167820Y84077D01*
Y79585D01*
X167898Y79195D01*
X168119Y78864D01*
X170539Y76444D01*
X170870Y76223D01*
X171260Y76146D01*
X174768D01*
X174786Y76102D01*
X175314Y75573D01*
X175908Y75327D01*
X175809Y74827D01*
X169028D01*
X169010Y74871D01*
X168482Y75400D01*
X167791Y75686D01*
X167044D01*
X166354Y75400D01*
X165826Y74871D01*
X165540Y74181D01*
Y73434D01*
X165826Y72744D01*
X166354Y72216D01*
X167044Y71930D01*
X167791D01*
X168482Y72216D01*
X169010Y72744D01*
X169028Y72788D01*
X176957D01*
X177347Y72866D01*
X177678Y73087D01*
X181036Y76444D01*
X181257Y76775D01*
X181334Y77165D01*
Y83035D01*
X181379Y83054D01*
X181907Y83582D01*
X182193Y84272D01*
Y85019D01*
X181907Y85709D01*
X181379Y86238D01*
X180689Y86524D01*
X179941D01*
X179251Y86238D01*
X178723Y85709D01*
X178437Y85019D01*
Y84272D01*
X178723Y83582D01*
X179251Y83054D01*
X179295Y83035D01*
Y77588D01*
X178756Y77048D01*
X178256Y77255D01*
Y77539D01*
X177970Y78229D01*
X177442Y78757D01*
X176751Y79043D01*
X176004D01*
X175314Y78757D01*
X174786Y78229D01*
X174768Y78185D01*
X171682D01*
X169860Y80008D01*
Y84526D01*
X170096Y84763D01*
X170382Y85453D01*
Y86200D01*
X170096Y86891D01*
X169568Y87419D01*
X168877Y87705D01*
D02*
G37*
G36*
X187069Y75500D02*
X186160D01*
X185282Y75265D01*
X184494Y74810D01*
X183851Y74167D01*
X183397Y73380D01*
X183161Y72502D01*
Y71593D01*
X183397Y70714D01*
X183851Y69927D01*
X184494Y69284D01*
X185282Y68830D01*
X186160Y68594D01*
X187069D01*
X187947Y68830D01*
X188734Y69284D01*
X189377Y69927D01*
X189832Y70714D01*
X190067Y71593D01*
Y72502D01*
X189832Y73380D01*
X189377Y74167D01*
X188734Y74810D01*
X187947Y75265D01*
X187069Y75500D01*
D02*
G37*
G36*
X144862Y78650D02*
X144115D01*
X143424Y78364D01*
X142896Y77835D01*
X142610Y77145D01*
Y76398D01*
X142896Y75708D01*
X143424Y75180D01*
X143469Y75161D01*
Y68139D01*
X142097Y66768D01*
X131532D01*
X131513Y66812D01*
X130985Y67340D01*
X130295Y67626D01*
X129548D01*
X128858Y67340D01*
X128329Y66812D01*
X128043Y66122D01*
Y65374D01*
X128329Y64684D01*
X128858Y64156D01*
X129548Y63870D01*
X130295D01*
X130985Y64156D01*
X131513Y64684D01*
X131532Y64728D01*
X133935D01*
X133984Y64228D01*
X133670Y64166D01*
X132843Y63613D01*
X132291Y62787D01*
X132097Y61811D01*
Y59055D01*
X132291Y58080D01*
X132843Y57253D01*
X133890Y56206D01*
X133699Y55744D01*
X130744D01*
X130726Y55788D01*
X130198Y56317D01*
X129507Y56602D01*
X128760D01*
X128070Y56317D01*
X127542Y55788D01*
X127256Y55098D01*
Y54351D01*
X127542Y53661D01*
X128070Y53132D01*
X128760Y52846D01*
X129507D01*
X130198Y53132D01*
X130726Y53661D01*
X130744Y53705D01*
X134311D01*
X138849Y49167D01*
X138658Y48705D01*
X136318D01*
X136238Y48898D01*
X135709Y49427D01*
X135019Y49713D01*
X134272D01*
X133582Y49427D01*
X133054Y48898D01*
X132768Y48208D01*
Y47461D01*
X133054Y46771D01*
X133582Y46243D01*
X134272Y45957D01*
X135019D01*
X135709Y46243D01*
X136133Y46666D01*
X139229D01*
X141510Y44385D01*
X141840Y44164D01*
X142230Y44087D01*
X156046D01*
X160696Y39437D01*
X161027Y39215D01*
X161417Y39138D01*
X165712D01*
X165731Y39094D01*
X166259Y38565D01*
X166949Y38280D01*
X167696D01*
X168387Y38565D01*
X168915Y39094D01*
X169201Y39784D01*
Y40531D01*
X168915Y41221D01*
X168387Y41750D01*
X167696Y42035D01*
X166949D01*
X166259Y41750D01*
X165731Y41221D01*
X165712Y41177D01*
X164937D01*
X164730Y41677D01*
X164797Y41744D01*
X165083Y42434D01*
Y43181D01*
X164797Y43872D01*
X164269Y44400D01*
X163578Y44686D01*
X162831D01*
X162787Y44668D01*
X160127Y47327D01*
X159797Y47548D01*
X159406Y47626D01*
X153119D01*
X152912Y48126D01*
X161645Y56859D01*
X162197Y57686D01*
X162391Y58661D01*
X162208Y59585D01*
X164596Y61972D01*
X197208D01*
X197227Y61928D01*
X197755Y61400D01*
X198445Y61114D01*
X199193D01*
X199883Y61400D01*
X200411Y61928D01*
X200697Y62619D01*
Y63366D01*
X200411Y64056D01*
X199883Y64584D01*
X199850Y64598D01*
X199733Y65187D01*
X200017Y65472D01*
X200303Y66162D01*
Y66909D01*
X200017Y67599D01*
X199489Y68128D01*
X198799Y68413D01*
X198052D01*
X197361Y68128D01*
X196833Y67599D01*
X196733Y67358D01*
X166006D01*
X165631Y67734D01*
X164941Y68020D01*
X164501D01*
X164169Y68081D01*
X164012Y68482D01*
Y72012D01*
X164056Y72030D01*
X164584Y72558D01*
X164870Y73248D01*
Y73996D01*
X164584Y74686D01*
X164056Y75214D01*
X163366Y75500D01*
X162619D01*
X161928Y75214D01*
X161400Y74686D01*
X161114Y73996D01*
Y73248D01*
X161400Y72558D01*
X161928Y72030D01*
X161972Y72012D01*
Y68533D01*
X149130Y55690D01*
X149086Y55709D01*
X148339D01*
X147649Y55423D01*
X147121Y54895D01*
X146835Y54204D01*
Y53457D01*
X147121Y52767D01*
X147232Y52655D01*
X147025Y52155D01*
X145150D01*
X137195Y60111D01*
Y61811D01*
X137001Y62787D01*
X136448Y63613D01*
X135621Y64166D01*
X135307Y64228D01*
X135356Y64728D01*
X142520D01*
X142910Y64806D01*
X143241Y65027D01*
X145209Y66996D01*
X145430Y67326D01*
X145508Y67716D01*
Y75161D01*
X145552Y75180D01*
X146080Y75708D01*
X146366Y76398D01*
Y77145D01*
X146080Y77835D01*
X145552Y78364D01*
X144862Y78650D01*
D02*
G37*
G36*
X386827Y79840D02*
X366892D01*
Y59905D01*
X367497D01*
X370186Y60259D01*
X372805Y60961D01*
X375310Y61999D01*
X377658Y63355D01*
X379810Y65005D01*
X381727Y66923D01*
X383378Y69074D01*
X384733Y71422D01*
X385771Y73927D01*
X386473Y76546D01*
X386827Y79235D01*
Y79840D01*
D02*
G37*
G36*
X365392D02*
X345457D01*
Y79235D01*
X345811Y76546D01*
X346512Y73927D01*
X347550Y71422D01*
X348906Y69074D01*
X350556Y66923D01*
X352474Y65005D01*
X354625Y63355D01*
X356973Y61999D01*
X359478Y60961D01*
X362098Y60259D01*
X364786Y59905D01*
X365392D01*
Y79840D01*
D02*
G37*
G36*
X48244D02*
X28309D01*
Y59905D01*
X28915D01*
X31603Y60259D01*
X34222Y60961D01*
X36727Y61999D01*
X39076Y63355D01*
X41227Y65005D01*
X43144Y66923D01*
X44795Y69074D01*
X46151Y71422D01*
X47188Y73927D01*
X47890Y76546D01*
X48244Y79235D01*
Y79840D01*
D02*
G37*
G36*
X26809D02*
X6874D01*
Y79235D01*
X7228Y76546D01*
X7930Y73927D01*
X8967Y71422D01*
X10323Y69074D01*
X11974Y66923D01*
X13891Y65005D01*
X16042Y63355D01*
X18391Y61999D01*
X20896Y60961D01*
X23515Y60259D01*
X26203Y59905D01*
X26809D01*
Y79840D01*
D02*
G37*
G36*
X109116Y54437D02*
X108207D01*
X107329Y54202D01*
X106541Y53747D01*
X105898Y53104D01*
X105444Y52317D01*
X105209Y51439D01*
Y50530D01*
X105444Y49652D01*
X105898Y48864D01*
X106541Y48221D01*
X107329Y47767D01*
X108207Y47532D01*
X109116D01*
X109994Y47767D01*
X110782Y48221D01*
X111424Y48864D01*
X111879Y49652D01*
X112114Y50530D01*
Y51439D01*
X111879Y52317D01*
X111424Y53104D01*
X110782Y53747D01*
X109994Y54202D01*
X109116Y54437D01*
D02*
G37*
G36*
X133525Y19988D02*
X132616D01*
X131738Y19753D01*
X130951Y19298D01*
X130308Y18655D01*
X129853Y17868D01*
X129618Y16990D01*
Y16081D01*
X129853Y15203D01*
X130308Y14415D01*
X130951Y13773D01*
X131738Y13318D01*
X132616Y13083D01*
X133525D01*
X134404Y13318D01*
X135191Y13773D01*
X135834Y14415D01*
X136288Y15203D01*
X136524Y16081D01*
Y16990D01*
X136288Y17868D01*
X135834Y18655D01*
X135191Y19298D01*
X134404Y19753D01*
X133525Y19988D01*
D02*
G37*
%LPD*%
D10*
X164567Y66142D02*
X164764Y66339D01*
X198228D02*
X198425Y66535D01*
X164764Y66339D02*
X198228D01*
X171260Y77165D02*
X176378D01*
X168840Y79585D02*
Y85491D01*
Y79585D02*
X171260Y77165D01*
X168504Y85827D02*
X168840Y85491D01*
X196441Y32594D02*
Y38992D01*
X193701Y41732D02*
X196441Y38992D01*
Y32594D02*
X196752Y32283D01*
X181890Y41732D02*
X193701D01*
X260161Y100523D02*
X262163Y102525D01*
X260161Y62130D02*
Y100523D01*
X238976Y40945D02*
X260161Y62130D01*
X258661Y62751D02*
Y100598D01*
X238430Y42520D02*
X258661Y62751D01*
X256734Y102525D02*
X258661Y100598D01*
X201181Y42520D02*
X238430D01*
X201181Y40945D02*
X238976D01*
X198819Y38583D02*
X201181Y40945D01*
X198819Y44882D02*
X201181Y42520D01*
X159843Y58661D02*
X164173Y62992D01*
X198819D01*
X142520Y65748D02*
X144488Y67716D01*
Y76772D01*
X129921Y65748D02*
X142520D01*
X156468Y45106D02*
X161417Y40157D01*
X142230Y45106D02*
X156468D01*
X161417Y40157D02*
X167323D01*
X134795Y47685D02*
X139651D01*
X142230Y45106D01*
X142852Y46606D02*
X159406D01*
X163205Y42808D01*
Y42808D02*
Y42808D01*
X134734Y54724D02*
X142852Y46606D01*
X129134Y54724D02*
X134734D01*
X134646Y47835D02*
X134795Y47685D01*
X148713Y53831D02*
X162992Y68110D01*
Y73622D01*
X167418Y73808D02*
X176957D01*
X180315Y77165D02*
Y84646D01*
X176957Y73808D02*
X180315Y77165D01*
D62*
X118110Y89265D02*
G03*
X128110Y79265I10000J0D01*
G01*
X64803Y80590D02*
G03*
X74803Y90591I0J10000D01*
G01*
X128110Y79265D02*
X129724D01*
X118110Y89265D02*
Y141535D01*
X59055Y80590D02*
X64803D01*
X74803Y90591D02*
Y141535D01*
X219488D02*
X275590D01*
X150787Y49606D02*
X159843Y58661D01*
X144095Y49606D02*
X150787D01*
X134646Y59055D02*
X144095Y49606D01*
X134646Y59055D02*
Y61811D01*
D64*
X186614Y72047D02*
D03*
X108661Y50984D02*
D03*
X133071Y16535D02*
D03*
X334646Y155630D02*
D03*
X125591Y110630D02*
D03*
X334646Y80575D02*
D03*
X59055Y80590D02*
D03*
D65*
X366094Y198819D02*
D03*
X307039D02*
D03*
X27512D02*
D03*
X86567D02*
D03*
D66*
X366094Y218504D02*
D03*
X307039D02*
D03*
X27512D02*
D03*
X86567D02*
D03*
D67*
X366142Y155630D02*
D03*
X27559D02*
D03*
X366142Y80590D02*
D03*
X27559D02*
D03*
D68*
X127165Y181890D02*
D03*
X138845D02*
D03*
Y170210D02*
D03*
X127165D02*
D03*
X90551Y182283D02*
D03*
X102231D02*
D03*
Y170604D02*
D03*
X90551D02*
D03*
X51181Y182677D02*
D03*
X62861D02*
D03*
Y170997D02*
D03*
X51181D02*
D03*
X145407Y186221D02*
D03*
Y174541D02*
D03*
Y162861D02*
D03*
Y127822D02*
D03*
Y139501D02*
D03*
Y151181D02*
D03*
X157087D02*
D03*
Y139501D02*
D03*
Y127822D02*
D03*
Y162861D02*
D03*
Y174541D02*
D03*
Y186221D02*
D03*
X151971Y96458D02*
D03*
X156695D02*
D03*
X161813D02*
D03*
Y89371D02*
D03*
X156695D02*
D03*
X151971D02*
D03*
X330711Y122048D02*
D03*
X336091D02*
D03*
X341472D02*
D03*
X353842Y204593D02*
D03*
X342163D02*
D03*
X330483D02*
D03*
X295444D02*
D03*
X318803D02*
D03*
X283764D02*
D03*
Y192913D02*
D03*
X318803D02*
D03*
X295444D02*
D03*
X330483D02*
D03*
X342163D02*
D03*
X353842D02*
D03*
X39764D02*
D03*
X51444D02*
D03*
X63123D02*
D03*
X98163D02*
D03*
X74803D02*
D03*
X109842D02*
D03*
Y204593D02*
D03*
X74803D02*
D03*
X98163D02*
D03*
X63123D02*
D03*
X51444D02*
D03*
X39764D02*
D03*
X8661Y9055D02*
D03*
X20341D02*
D03*
X32021D02*
D03*
X67060D02*
D03*
X55380D02*
D03*
X43701D02*
D03*
X78740Y32415D02*
D03*
Y9055D02*
D03*
Y20735D02*
D03*
X43701D02*
D03*
X55380D02*
D03*
X67060D02*
D03*
X32021D02*
D03*
X20341D02*
D03*
X8661D02*
D03*
X43701Y32415D02*
D03*
X55380D02*
D03*
X67060D02*
D03*
X32021D02*
D03*
X20341D02*
D03*
X8661D02*
D03*
X78740Y44094D02*
D03*
X43701D02*
D03*
X55380D02*
D03*
X67060D02*
D03*
X32021D02*
D03*
X20341D02*
D03*
X8661D02*
D03*
X317454Y89501D02*
D03*
Y77821D02*
D03*
Y66142D02*
D03*
Y31102D02*
D03*
Y42782D02*
D03*
Y54462D02*
D03*
Y19423D02*
D03*
X305774Y89501D02*
D03*
Y77821D02*
D03*
Y66142D02*
D03*
Y31102D02*
D03*
Y42782D02*
D03*
Y54462D02*
D03*
Y19423D02*
D03*
X294094Y89501D02*
D03*
Y77821D02*
D03*
Y66142D02*
D03*
Y31102D02*
D03*
Y42782D02*
D03*
Y54462D02*
D03*
X282415Y19423D02*
D03*
X294094D02*
D03*
X282415Y54462D02*
D03*
Y42782D02*
D03*
Y31102D02*
D03*
Y66142D02*
D03*
Y77821D02*
D03*
Y89501D02*
D03*
X255118Y65354D02*
D03*
Y70735D02*
D03*
Y76116D02*
D03*
Y81496D02*
D03*
X192913Y9711D02*
D03*
Y15092D02*
D03*
Y20472D02*
D03*
X129331Y25066D02*
D03*
Y30446D02*
D03*
Y35827D02*
D03*
X129724Y73884D02*
D03*
Y79265D02*
D03*
Y84646D02*
D03*
X12467Y122047D02*
D03*
X17848D02*
D03*
X23228D02*
D03*
X12467Y115354D02*
D03*
X17848D02*
D03*
X23228D02*
D03*
X370472Y114173D02*
D03*
X375853D02*
D03*
X381234D02*
D03*
X260236Y57480D02*
D03*
X256693Y53937D02*
D03*
X253150Y50000D02*
D03*
X249213Y46063D02*
D03*
X245276Y42126D02*
D03*
X237008Y45276D02*
D03*
X240945Y49213D02*
D03*
X244882Y53150D02*
D03*
X248425Y57087D02*
D03*
X251969Y60630D02*
D03*
X263779Y97638D02*
D03*
Y92257D02*
D03*
Y86877D02*
D03*
Y81496D02*
D03*
Y76116D02*
D03*
Y70735D02*
D03*
Y65354D02*
D03*
X255118Y86877D02*
D03*
Y92257D02*
D03*
Y97638D02*
D03*
X201969Y89370D02*
D03*
X197244D02*
D03*
X192126D02*
D03*
Y96457D02*
D03*
X197244D02*
D03*
X201969D02*
D03*
X94882Y39764D02*
D03*
X140551Y38189D02*
D03*
X157874Y37795D02*
D03*
X150000Y23622D02*
D03*
X173228Y23228D02*
D03*
X211417Y32283D02*
D03*
X206299Y57874D02*
D03*
X216535D02*
D03*
X211024Y62992D02*
D03*
X198425Y66535D02*
D03*
X164567Y66142D02*
D03*
X181890Y41732D02*
D03*
X196752Y32283D02*
D03*
X198819Y38583D02*
D03*
Y44882D02*
D03*
X262163Y102525D02*
D03*
X256734D02*
D03*
X198819Y62992D02*
D03*
X163205Y42808D02*
D03*
X129134Y54724D02*
D03*
X144488Y76772D02*
D03*
X129921Y65748D02*
D03*
X134646Y61811D02*
D03*
X148713Y53831D02*
D03*
X167323Y40157D02*
D03*
X134646Y47835D02*
D03*
X159843Y58661D02*
D03*
X162992Y73622D02*
D03*
X167418Y73808D02*
D03*
X176378Y77165D02*
D03*
X168504Y85827D02*
D03*
X180315Y84646D02*
D03*
D69*
X275590Y141535D02*
D03*
Y173425D02*
D03*
X118110Y141535D02*
D03*
Y173425D02*
D03*
X74803Y141535D02*
D03*
Y173425D02*
D03*
M02*
